return [[{
  "header": {
    "keySignatures": [
      {
        "key": "Bb",
        "scale": "major",
        "ticks": 0
      }
    ],
    "meta": [],
    "name": "control track",
    "ppq": 256,
    "tempos": [
      {
        "bpm": 100,
        "ticks": 896
      }
    ],
    "timeSignatures": [
      {
        "ticks": 0,
        "timeSignature": [
          4,
          4
        ],
        "measures": 0
      }
    ]
  },
  "tracks": [
    {
      "channel": 0,
      "controlChanges": {
        "7": [
          {
            "number": 7,
            "ticks": 896,
            "time": 2.1,
            "value": 0.7874015748031497
          },
          {
            "number": 7,
            "ticks": 896,
            "time": 2.1,
            "value": 0.7874015748031497
          }
        ],
        "10": [
          {
            "number": 10,
            "ticks": 896,
            "time": 2.1,
            "value": 0.4015748031496063
          },
          {
            "number": 10,
            "ticks": 896,
            "time": 2.1,
            "value": 0.4015748031496063
          }
        ],
        "64": [
          {
            "number": 64,
            "ticks": 896,
            "time": 2.1,
            "value": 0
          },
          {
            "number": 64,
            "ticks": 896,
            "time": 2.1,
            "value": 0
          }
        ],
        "91": [
          {
            "number": 91,
            "ticks": 896,
            "time": 2.1,
            "value": 0.3779527559055118
          },
          {
            "number": 91,
            "ticks": 896,
            "time": 2.1,
            "value": 0.3779527559055118
          }
        ],
        "121": [
          {
            "number": 121,
            "ticks": 896,
            "time": 2.1,
            "value": 0
          },
          {
            "number": 121,
            "ticks": 896,
            "time": 2.1,
            "value": 0
          }
        ]
      },
      "pitchBends": [],
      "instrument": {
        "family": "piano",
        "name": "music box",
        "number": 0
      },
      "name": "Piano",
      "notes": [
        {
          "duration": 0.2999999999999998,
          "durationTicks": 128,
          "midi": 65,
          "name": "F4",
          "ticks": 896,
          "time": 2.1,
          "velocity": 0.6535433070866141
        },
        {
          "duration": 0.6000000000000001,
          "durationTicks": 256,
          "midi": 58,
          "name": "A#3",
          "ticks": 1024,
          "time": 2.4,
          "velocity": 1
        },
        {
          "duration": 0.6000000000000001,
          "durationTicks": 256,
          "midi": 62,
          "name": "D4",
          "ticks": 1024,
          "time": 2.4,
          "velocity": 1
        },
        {
          "duration": 0.6000000000000001,
          "durationTicks": 256,
          "midi": 65,
          "name": "F4",
          "ticks": 1024,
          "time": 2.4,
          "velocity": 1
        },
        {
          "duration": 0.6000000000000001,
          "durationTicks": 256,
          "midi": 70,
          "name": "A#4",
          "ticks": 1024,
          "time": 2.4,
          "velocity": 1
        },
        {
          "duration": 0.6000000000000001,
          "durationTicks": 256,
          "midi": 34,
          "name": "A#1",
          "ticks": 1024,
          "time": 2.4,
          "velocity": 1
        },
        {
          "duration": 0.6000000000000001,
          "durationTicks": 256,
          "midi": 46,
          "name": "A#2",
          "ticks": 1024,
          "time": 2.4,
          "velocity": 1
        },
        {
          "duration": 0.6000000000000001,
          "durationTicks": 256,
          "midi": 58,
          "name": "A#3",
          "ticks": 1280,
          "time": 3,
          "velocity": 1
        },
        {
          "duration": 0.6000000000000001,
          "durationTicks": 256,
          "midi": 62,
          "name": "D4",
          "ticks": 1280,
          "time": 3,
          "velocity": 1
        },
        {
          "duration": 0.4500000000000002,
          "durationTicks": 192,
          "midi": 65,
          "name": "F4",
          "ticks": 1280,
          "time": 3,
          "velocity": 1
        },
        {
          "duration": 0.6000000000000001,
          "durationTicks": 256,
          "midi": 34,
          "name": "A#1",
          "ticks": 1280,
          "time": 3,
          "velocity": 1
        },
        {
          "duration": 0.6000000000000001,
          "durationTicks": 256,
          "midi": 46,
          "name": "A#2",
          "ticks": 1280,
          "time": 3,
          "velocity": 1
        },
        {
          "duration": 0.1499999999999999,
          "durationTicks": 64,
          "midi": 67,
          "name": "G4",
          "ticks": 1472,
          "time": 3.45,
          "velocity": 1
        },
        {
          "duration": 0.6000000000000001,
          "durationTicks": 256,
          "midi": 57,
          "name": "A3",
          "ticks": 1536,
          "time": 3.6,
          "velocity": 1
        },
        {
          "duration": 0.6000000000000001,
          "durationTicks": 256,
          "midi": 62,
          "name": "D4",
          "ticks": 1536,
          "time": 3.6,
          "velocity": 1
        },
        {
          "duration": 0.6000000000000001,
          "durationTicks": 256,
          "midi": 65,
          "name": "F4",
          "ticks": 1536,
          "time": 3.6,
          "velocity": 1
        },
        {
          "duration": 0.6000000000000001,
          "durationTicks": 256,
          "midi": 69,
          "name": "A4",
          "ticks": 1536,
          "time": 3.6,
          "velocity": 1
        },
        {
          "duration": 0.6000000000000001,
          "durationTicks": 256,
          "midi": 38,
          "name": "D2",
          "ticks": 1536,
          "time": 3.6,
          "velocity": 1
        },
        {
          "duration": 0.6000000000000001,
          "durationTicks": 256,
          "midi": 50,
          "name": "D3",
          "ticks": 1536,
          "time": 3.6,
          "velocity": 1
        },
        {
          "duration": 0.2999999999999998,
          "durationTicks": 128,
          "midi": 62,
          "name": "D4",
          "ticks": 1792,
          "time": 4.2,
          "velocity": 1
        },
        {
          "duration": 0.5999999999999996,
          "durationTicks": 256,
          "midi": 53,
          "name": "F3",
          "ticks": 1792,
          "time": 4.2,
          "velocity": 1
        },
        {
          "duration": 0.5999999999999996,
          "durationTicks": 256,
          "midi": 57,
          "name": "A3",
          "ticks": 1792,
          "time": 4.2,
          "velocity": 1
        },
        {
          "duration": 0.5999999999999996,
          "durationTicks": 256,
          "midi": 38,
          "name": "D2",
          "ticks": 1792,
          "time": 4.2,
          "velocity": 1
        },
        {
          "duration": 0.5999999999999996,
          "durationTicks": 256,
          "midi": 50,
          "name": "D3",
          "ticks": 1792,
          "time": 4.2,
          "velocity": 1
        },
        {
          "duration": 0.2999999999999998,
          "durationTicks": 128,
          "midi": 62,
          "name": "D4",
          "ticks": 1920,
          "time": 4.5,
          "velocity": 1
        },
        {
          "duration": 0.6000000000000005,
          "durationTicks": 256,
          "midi": 55,
          "name": "G3",
          "ticks": 2048,
          "time": 4.8,
          "velocity": 1
        },
        {
          "duration": 0.6000000000000005,
          "durationTicks": 256,
          "midi": 58,
          "name": "A#3",
          "ticks": 2048,
          "time": 4.8,
          "velocity": 1
        },
        {
          "duration": 0.6000000000000005,
          "durationTicks": 256,
          "midi": 67,
          "name": "G4",
          "ticks": 2048,
          "time": 4.8,
          "velocity": 1
        },
        {
          "duration": 0.6000000000000005,
          "durationTicks": 256,
          "midi": 39,
          "name": "D#2",
          "ticks": 2048,
          "time": 4.8,
          "velocity": 1
        },
        {
          "duration": 0.6000000000000005,
          "durationTicks": 256,
          "midi": 51,
          "name": "D#3",
          "ticks": 2048,
          "time": 4.8,
          "velocity": 1
        },
        {
          "duration": 0.4499999999999993,
          "durationTicks": 192,
          "midi": 55,
          "name": "G3",
          "ticks": 2304,
          "time": 5.4,
          "velocity": 1
        },
        {
          "duration": 0.4499999999999993,
          "durationTicks": 192,
          "midi": 58,
          "name": "A#3",
          "ticks": 2304,
          "time": 5.4,
          "velocity": 1
        },
        {
          "duration": 0.4499999999999993,
          "durationTicks": 192,
          "midi": 65,
          "name": "F4",
          "ticks": 2304,
          "time": 5.4,
          "velocity": 1
        },
        {
          "duration": 0.5999999999999996,
          "durationTicks": 256,
          "midi": 39,
          "name": "D#2",
          "ticks": 2304,
          "time": 5.4,
          "velocity": 1
        },
        {
          "duration": 0.5999999999999996,
          "durationTicks": 256,
          "midi": 51,
          "name": "D#3",
          "ticks": 2304,
          "time": 5.4,
          "velocity": 1
        },
        {
          "duration": 0.15000000000000036,
          "durationTicks": 64,
          "midi": 63,
          "name": "D#4",
          "ticks": 2496,
          "time": 5.85,
          "velocity": 1
        },
        {
          "duration": 0.5999999999999996,
          "durationTicks": 256,
          "midi": 53,
          "name": "F3",
          "ticks": 2560,
          "time": 6,
          "velocity": 1
        },
        {
          "duration": 0.5999999999999996,
          "durationTicks": 256,
          "midi": 58,
          "name": "A#3",
          "ticks": 2560,
          "time": 6,
          "velocity": 1
        },
        {
          "duration": 0.5999999999999996,
          "durationTicks": 256,
          "midi": 65,
          "name": "F4",
          "ticks": 2560,
          "time": 6,
          "velocity": 1
        },
        {
          "duration": 0.5999999999999996,
          "durationTicks": 256,
          "midi": 38,
          "name": "D2",
          "ticks": 2560,
          "time": 6,
          "velocity": 1
        },
        {
          "duration": 0.5999999999999996,
          "durationTicks": 256,
          "midi": 50,
          "name": "D3",
          "ticks": 2560,
          "time": 6,
          "velocity": 1
        },
        {
          "duration": 0.3000000000000007,
          "durationTicks": 128,
          "midi": 58,
          "name": "A#3",
          "ticks": 2816,
          "time": 6.6,
          "velocity": 1
        },
        {
          "duration": 0.5999999999999996,
          "durationTicks": 256,
          "midi": 53,
          "name": "F3",
          "ticks": 2816,
          "time": 6.6,
          "velocity": 1
        },
        {
          "duration": 0.5999999999999996,
          "durationTicks": 256,
          "midi": 38,
          "name": "D2",
          "ticks": 2816,
          "time": 6.6,
          "velocity": 1
        },
        {
          "duration": 0.5999999999999996,
          "durationTicks": 256,
          "midi": 50,
          "name": "D3",
          "ticks": 2816,
          "time": 6.6,
          "velocity": 1
        },
        {
          "duration": 0.29999999999999893,
          "durationTicks": 128,
          "midi": 58,
          "name": "A#3",
          "ticks": 2944,
          "time": 6.9,
          "velocity": 1
        },
        {
          "duration": 0.6000000000000014,
          "durationTicks": 256,
          "midi": 51,
          "name": "D#3",
          "ticks": 3072,
          "time": 7.199999999999999,
          "velocity": 1
        },
        {
          "duration": 0.6000000000000014,
          "durationTicks": 256,
          "midi": 55,
          "name": "G3",
          "ticks": 3072,
          "time": 7.199999999999999,
          "velocity": 1
        },
        {
          "duration": 0.6000000000000014,
          "durationTicks": 256,
          "midi": 60,
          "name": "C4",
          "ticks": 3072,
          "time": 7.199999999999999,
          "velocity": 1
        },
        {
          "duration": 0.6000000000000014,
          "durationTicks": 256,
          "midi": 36,
          "name": "C2",
          "ticks": 3072,
          "time": 7.199999999999999,
          "velocity": 1
        },
        {
          "duration": 0.6000000000000014,
          "durationTicks": 256,
          "midi": 48,
          "name": "C3",
          "ticks": 3072,
          "time": 7.199999999999999,
          "velocity": 1
        },
        {
          "duration": 0.29999999999999893,
          "durationTicks": 128,
          "midi": 51,
          "name": "D#3",
          "ticks": 3328,
          "time": 7.800000000000001,
          "velocity": 1
        },
        {
          "duration": 0.29999999999999893,
          "durationTicks": 128,
          "midi": 55,
          "name": "G3",
          "ticks": 3328,
          "time": 7.800000000000001,
          "velocity": 1
        },
        {
          "duration": 0.29999999999999893,
          "durationTicks": 128,
          "midi": 60,
          "name": "C4",
          "ticks": 3328,
          "time": 7.800000000000001,
          "velocity": 1
        },
        {
          "duration": 0.29999999999999893,
          "durationTicks": 128,
          "midi": 36,
          "name": "C2",
          "ticks": 3328,
          "time": 7.800000000000001,
          "velocity": 1
        },
        {
          "duration": 0.29999999999999893,
          "durationTicks": 128,
          "midi": 48,
          "name": "C3",
          "ticks": 3328,
          "time": 7.800000000000001,
          "velocity": 1
        },
        {
          "duration": 0.3000000000000007,
          "durationTicks": 128,
          "midi": 62,
          "name": "D4",
          "ticks": 3456,
          "time": 8.1,
          "velocity": 0.8031496062992126
        },
        {
          "duration": 0.3000000000000007,
          "durationTicks": 128,
          "midi": 35,
          "name": "B1",
          "ticks": 3456,
          "time": 8.1,
          "velocity": 1
        },
        {
          "duration": 0.3000000000000007,
          "durationTicks": 128,
          "midi": 47,
          "name": "B2",
          "ticks": 3456,
          "time": 8.1,
          "velocity": 1
        },
        {
          "duration": 0.5999999999999996,
          "durationTicks": 256,
          "midi": 55,
          "name": "G3",
          "ticks": 3584,
          "time": 8.4,
          "velocity": 1
        },
        {
          "duration": 0.5999999999999996,
          "durationTicks": 256,
          "midi": 60,
          "name": "C4",
          "ticks": 3584,
          "time": 8.4,
          "velocity": 1
        },
        {
          "duration": 0.5999999999999996,
          "durationTicks": 256,
          "midi": 63,
          "name": "D#4",
          "ticks": 3584,
          "time": 8.4,
          "velocity": 1
        },
        {
          "duration": 0.5999999999999996,
          "durationTicks": 256,
          "midi": 34,
          "name": "A#1",
          "ticks": 3584,
          "time": 8.4,
          "velocity": 1
        },
        {
          "duration": 0.5999999999999996,
          "durationTicks": 256,
          "midi": 46,
          "name": "A#2",
          "ticks": 3584,
          "time": 8.4,
          "velocity": 1
        },
        {
          "duration": 0.29999999999999893,
          "durationTicks": 128,
          "midi": 55,
          "name": "G3",
          "ticks": 3840,
          "time": 9,
          "velocity": 1
        },
        {
          "duration": 0.29999999999999893,
          "durationTicks": 128,
          "midi": 60,
          "name": "C4",
          "ticks": 3840,
          "time": 9,
          "velocity": 1
        },
        {
          "duration": 0.29999999999999893,
          "durationTicks": 128,
          "midi": 63,
          "name": "D#4",
          "ticks": 3840,
          "time": 9,
          "velocity": 1
        },
        {
          "duration": 0.5999999999999996,
          "durationTicks": 256,
          "midi": 34,
          "name": "A#1",
          "ticks": 3840,
          "time": 9,
          "velocity": 1
        },
        {
          "duration": 0.5999999999999996,
          "durationTicks": 256,
          "midi": 46,
          "name": "A#2",
          "ticks": 3840,
          "time": 9,
          "velocity": 1
        },
        {
          "duration": 0.3000000000000007,
          "durationTicks": 128,
          "midi": 55,
          "name": "G3",
          "ticks": 3968,
          "time": 9.299999999999999,
          "velocity": 1
        },
        {
          "duration": 0.3000000000000007,
          "durationTicks": 128,
          "midi": 62,
          "name": "D4",
          "ticks": 3968,
          "time": 9.299999999999999,
          "velocity": 1
        },
        {
          "duration": 0.3000000000000007,
          "durationTicks": 128,
          "midi": 65,
          "name": "F4",
          "ticks": 3968,
          "time": 9.299999999999999,
          "velocity": 1
        },
        {
          "duration": 0.5999999999999996,
          "durationTicks": 256,
          "midi": 55,
          "name": "G3",
          "ticks": 4096,
          "time": 9.6,
          "velocity": 1
        },
        {
          "duration": 0.5999999999999996,
          "durationTicks": 256,
          "midi": 63,
          "name": "D#4",
          "ticks": 4096,
          "time": 9.6,
          "velocity": 1
        },
        {
          "duration": 0.5999999999999996,
          "durationTicks": 256,
          "midi": 67,
          "name": "G4",
          "ticks": 4096,
          "time": 9.6,
          "velocity": 1
        },
        {
          "duration": 0.5999999999999996,
          "durationTicks": 256,
          "midi": 34,
          "name": "A#1",
          "ticks": 4096,
          "time": 9.6,
          "velocity": 1
        },
        {
          "duration": 0.5999999999999996,
          "durationTicks": 256,
          "midi": 46,
          "name": "A#2",
          "ticks": 4096,
          "time": 9.6,
          "velocity": 1
        },
        {
          "duration": 0.3000000000000007,
          "durationTicks": 128,
          "midi": 57,
          "name": "A3",
          "ticks": 4352,
          "time": 10.2,
          "velocity": 1
        },
        {
          "duration": 0.3000000000000007,
          "durationTicks": 128,
          "midi": 65,
          "name": "F4",
          "ticks": 4352,
          "time": 10.2,
          "velocity": 1
        },
        {
          "duration": 0.3000000000000007,
          "durationTicks": 128,
          "midi": 69,
          "name": "A4",
          "ticks": 4352,
          "time": 10.2,
          "velocity": 1
        },
        {
          "duration": 0.3000000000000007,
          "durationTicks": 128,
          "midi": 33,
          "name": "A1",
          "ticks": 4352,
          "time": 10.2,
          "velocity": 1
        },
        {
          "duration": 0.3000000000000007,
          "durationTicks": 128,
          "midi": 45,
          "name": "A2",
          "ticks": 4352,
          "time": 10.2,
          "velocity": 1
        },
        {
          "duration": 0.29999999999999893,
          "durationTicks": 128,
          "midi": 58,
          "name": "A#3",
          "ticks": 4480,
          "time": 10.5,
          "velocity": 1
        },
        {
          "duration": 0.29999999999999893,
          "durationTicks": 128,
          "midi": 65,
          "name": "F4",
          "ticks": 4480,
          "time": 10.5,
          "velocity": 1
        },
        {
          "duration": 0.29999999999999893,
          "durationTicks": 128,
          "midi": 67,
          "name": "G4",
          "ticks": 4480,
          "time": 10.5,
          "velocity": 1
        },
        {
          "duration": 0.29999999999999893,
          "durationTicks": 128,
          "midi": 70,
          "name": "A#4",
          "ticks": 4480,
          "time": 10.5,
          "velocity": 1
        },
        {
          "duration": 0.29999999999999893,
          "durationTicks": 128,
          "midi": 31,
          "name": "G1",
          "ticks": 4480,
          "time": 10.5,
          "velocity": 1
        },
        {
          "duration": 0.29999999999999893,
          "durationTicks": 128,
          "midi": 43,
          "name": "G2",
          "ticks": 4480,
          "time": 10.5,
          "velocity": 1
        },
        {
          "duration": 0.9000000000000004,
          "durationTicks": 384,
          "midi": 72,
          "name": "C5",
          "ticks": 4608,
          "time": 10.799999999999999,
          "velocity": 1
        },
        {
          "duration": 1.200000000000001,
          "durationTicks": 512,
          "midi": 60,
          "name": "C4",
          "ticks": 4608,
          "time": 10.799999999999999,
          "velocity": 1
        },
        {
          "duration": 1.200000000000001,
          "durationTicks": 512,
          "midi": 65,
          "name": "F4",
          "ticks": 4608,
          "time": 10.799999999999999,
          "velocity": 1
        },
        {
          "duration": 1.200000000000001,
          "durationTicks": 512,
          "midi": 69,
          "name": "A4",
          "ticks": 4608,
          "time": 10.799999999999999,
          "velocity": 1
        },
        {
          "duration": 0.3000000000000007,
          "durationTicks": 128,
          "midi": 29,
          "name": "F1",
          "ticks": 4608,
          "time": 10.799999999999999,
          "velocity": 1
        },
        {
          "duration": 0.3000000000000007,
          "durationTicks": 128,
          "midi": 41,
          "name": "F2",
          "ticks": 4608,
          "time": 10.799999999999999,
          "velocity": 1
        },
        {
          "duration": 0.29999999999999893,
          "durationTicks": 128,
          "midi": 39,
          "name": "D#2",
          "ticks": 4736,
          "time": 11.1,
          "velocity": 1
        },
        {
          "duration": 0.29999999999999893,
          "durationTicks": 128,
          "midi": 51,
          "name": "D#3",
          "ticks": 4736,
          "time": 11.1,
          "velocity": 1
        },
        {
          "duration": 0.3000000000000007,
          "durationTicks": 128,
          "midi": 38,
          "name": "D2",
          "ticks": 4864,
          "time": 11.399999999999999,
          "velocity": 1
        },
        {
          "duration": 0.3000000000000007,
          "durationTicks": 128,
          "midi": 50,
          "name": "D3",
          "ticks": 4864,
          "time": 11.399999999999999,
          "velocity": 1
        },
        {
          "duration": 0.3000000000000007,
          "durationTicks": 128,
          "midi": 36,
          "name": "C2",
          "ticks": 4992,
          "time": 11.7,
          "velocity": 1
        },
        {
          "duration": 0.3000000000000007,
          "durationTicks": 128,
          "midi": 48,
          "name": "C3",
          "ticks": 4992,
          "time": 11.7,
          "velocity": 1
        },
        {
          "duration": 0.5999999999999996,
          "durationTicks": 256,
          "midi": 62,
          "name": "D4",
          "ticks": 5120,
          "time": 12,
          "velocity": 1
        },
        {
          "duration": 0.5999999999999996,
          "durationTicks": 256,
          "midi": 65,
          "name": "F4",
          "ticks": 5120,
          "time": 12,
          "velocity": 1
        },
        {
          "duration": 0.5999999999999996,
          "durationTicks": 256,
          "midi": 70,
          "name": "A#4",
          "ticks": 5120,
          "time": 12,
          "velocity": 1
        },
        {
          "duration": 0.5999999999999996,
          "durationTicks": 256,
          "midi": 74,
          "name": "D5",
          "ticks": 5120,
          "time": 12,
          "velocity": 1
        },
        {
          "duration": 0.5999999999999996,
          "durationTicks": 256,
          "midi": 46,
          "name": "A#2",
          "ticks": 5120,
          "time": 12,
          "velocity": 1
        },
        {
          "duration": 0.5999999999999996,
          "durationTicks": 256,
          "midi": 34,
          "name": "A#1",
          "ticks": 5120,
          "time": 12,
          "velocity": 1
        },
        {
          "duration": 0.4499999999999993,
          "durationTicks": 192,
          "midi": 60,
          "name": "C4",
          "ticks": 5376,
          "time": 12.6,
          "velocity": 1
        },
        {
          "duration": 0.5999999999999996,
          "durationTicks": 256,
          "midi": 65,
          "name": "F4",
          "ticks": 5376,
          "time": 12.6,
          "velocity": 1
        },
        {
          "duration": 0.4499999999999993,
          "durationTicks": 192,
          "midi": 72,
          "name": "C5",
          "ticks": 5376,
          "time": 12.6,
          "velocity": 1
        },
        {
          "duration": 0.5999999999999996,
          "durationTicks": 256,
          "midi": 50,
          "name": "D3",
          "ticks": 5376,
          "time": 12.6,
          "velocity": 1
        },
        {
          "duration": 0.5999999999999996,
          "durationTicks": 256,
          "midi": 38,
          "name": "D2",
          "ticks": 5376,
          "time": 12.6,
          "velocity": 1
        },
        {
          "duration": 0.15000000000000036,
          "durationTicks": 64,
          "midi": 58,
          "name": "A#3",
          "ticks": 5568,
          "time": 13.049999999999999,
          "velocity": 1
        },
        {
          "duration": 0.15000000000000036,
          "durationTicks": 64,
          "midi": 67,
          "name": "G4",
          "ticks": 5568,
          "time": 13.049999999999999,
          "velocity": 1
        },
        {
          "duration": 0.15000000000000036,
          "durationTicks": 64,
          "midi": 70,
          "name": "A#4",
          "ticks": 5568,
          "time": 13.049999999999999,
          "velocity": 1
        },
        {
          "duration": 0.5999999999999996,
          "durationTicks": 256,
          "midi": 60,
          "name": "C4",
          "ticks": 5632,
          "time": 13.2,
          "velocity": 1
        },
        {
          "duration": 0.5999999999999996,
          "durationTicks": 256,
          "midi": 65,
          "name": "F4",
          "ticks": 5632,
          "time": 13.2,
          "velocity": 1
        },
        {
          "duration": 0.5999999999999996,
          "durationTicks": 256,
          "midi": 69,
          "name": "A4",
          "ticks": 5632,
          "time": 13.2,
          "velocity": 1
        },
        {
          "duration": 0.5999999999999996,
          "durationTicks": 256,
          "midi": 72,
          "name": "C5",
          "ticks": 5632,
          "time": 13.2,
          "velocity": 1
        },
        {
          "duration": 0.5999999999999996,
          "durationTicks": 256,
          "midi": 53,
          "name": "F3",
          "ticks": 5632,
          "time": 13.2,
          "velocity": 1
        },
        {
          "duration": 0.5999999999999996,
          "durationTicks": 256,
          "midi": 41,
          "name": "F2",
          "ticks": 5632,
          "time": 13.2,
          "velocity": 1
        },
        {
          "duration": 0.3000000000000007,
          "durationTicks": 128,
          "midi": 69,
          "name": "A4",
          "ticks": 5888,
          "time": 13.799999999999999,
          "velocity": 1
        },
        {
          "duration": 0.5999999999999996,
          "durationTicks": 256,
          "midi": 57,
          "name": "A3",
          "ticks": 5888,
          "time": 13.799999999999999,
          "velocity": 1
        },
        {
          "duration": 0.5999999999999996,
          "durationTicks": 256,
          "midi": 60,
          "name": "C4",
          "ticks": 5888,
          "time": 13.799999999999999,
          "velocity": 1
        },
        {
          "duration": 0.5999999999999996,
          "durationTicks": 256,
          "midi": 45,
          "name": "A2",
          "ticks": 5888,
          "time": 13.799999999999999,
          "velocity": 1
        },
        {
          "duration": 0.5999999999999996,
          "durationTicks": 256,
          "midi": 41,
          "name": "F2",
          "ticks": 5888,
          "time": 13.799999999999999,
          "velocity": 1
        },
        {
          "duration": 0.29999999999999893,
          "durationTicks": 128,
          "midi": 65,
          "name": "F4",
          "ticks": 6016,
          "time": 14.1,
          "velocity": 1
        },
        {
          "duration": 0.6000000000000014,
          "durationTicks": 256,
          "midi": 58,
          "name": "A#3",
          "ticks": 6144,
          "time": 14.399999999999999,
          "velocity": 1
        },
        {
          "duration": 0.6000000000000014,
          "durationTicks": 256,
          "midi": 62,
          "name": "D4",
          "ticks": 6144,
          "time": 14.399999999999999,
          "velocity": 1
        },
        {
          "duration": 0.6000000000000014,
          "durationTicks": 256,
          "midi": 67,
          "name": "G4",
          "ticks": 6144,
          "time": 14.399999999999999,
          "velocity": 1
        },
        {
          "duration": 0.6000000000000014,
          "durationTicks": 256,
          "midi": 70,
          "name": "A#4",
          "ticks": 6144,
          "time": 14.399999999999999,
          "velocity": 1
        },
        {
          "duration": 0.6000000000000014,
          "durationTicks": 256,
          "midi": 43,
          "name": "G2",
          "ticks": 6144,
          "time": 14.399999999999999,
          "velocity": 1
        },
        {
          "duration": 0.6000000000000014,
          "durationTicks": 256,
          "midi": 31,
          "name": "G1",
          "ticks": 6144,
          "time": 14.399999999999999,
          "velocity": 1
        },
        {
          "duration": 0.4499999999999993,
          "durationTicks": 192,
          "midi": 57,
          "name": "A3",
          "ticks": 6400,
          "time": 15,
          "velocity": 1
        },
        {
          "duration": 0.4499999999999993,
          "durationTicks": 192,
          "midi": 62,
          "name": "D4",
          "ticks": 6400,
          "time": 15,
          "velocity": 1
        },
        {
          "duration": 0.4499999999999993,
          "durationTicks": 192,
          "midi": 69,
          "name": "A4",
          "ticks": 6400,
          "time": 15,
          "velocity": 1
        },
        {
          "duration": 0.5999999999999996,
          "durationTicks": 256,
          "midi": 46,
          "name": "A#2",
          "ticks": 6400,
          "time": 15,
          "velocity": 1
        },
        {
          "duration": 0.5999999999999996,
          "durationTicks": 256,
          "midi": 34,
          "name": "A#1",
          "ticks": 6400,
          "time": 15,
          "velocity": 1
        },
        {
          "duration": 0.15000000000000036,
          "durationTicks": 64,
          "midi": 67,
          "name": "G4",
          "ticks": 6592,
          "time": 15.45,
          "velocity": 1
        },
        {
          "duration": 0.5999999999999996,
          "durationTicks": 256,
          "midi": 57,
          "name": "A3",
          "ticks": 6656,
          "time": 15.6,
          "velocity": 1
        },
        {
          "duration": 0.5999999999999996,
          "durationTicks": 256,
          "midi": 62,
          "name": "D4",
          "ticks": 6656,
          "time": 15.6,
          "velocity": 1
        },
        {
          "duration": 0.5999999999999996,
          "durationTicks": 256,
          "midi": 65,
          "name": "F4",
          "ticks": 6656,
          "time": 15.6,
          "velocity": 1
        },
        {
          "duration": 0.5999999999999996,
          "durationTicks": 256,
          "midi": 69,
          "name": "A4",
          "ticks": 6656,
          "time": 15.6,
          "velocity": 1
        },
        {
          "duration": 0.5999999999999996,
          "durationTicks": 256,
          "midi": 50,
          "name": "D3",
          "ticks": 6656,
          "time": 15.6,
          "velocity": 1
        },
        {
          "duration": 0.5999999999999996,
          "durationTicks": 256,
          "midi": 38,
          "name": "D2",
          "ticks": 6656,
          "time": 15.6,
          "velocity": 1
        },
        {
          "duration": 0.3000000000000007,
          "durationTicks": 128,
          "midi": 62,
          "name": "D4",
          "ticks": 6912,
          "time": 16.2,
          "velocity": 1
        },
        {
          "duration": 0.6000000000000014,
          "durationTicks": 256,
          "midi": 53,
          "name": "F3",
          "ticks": 6912,
          "time": 16.2,
          "velocity": 1
        },
        {
          "duration": 0.6000000000000014,
          "durationTicks": 256,
          "midi": 57,
          "name": "A3",
          "ticks": 6912,
          "time": 16.2,
          "velocity": 1
        },
        {
          "duration": 0.6000000000000014,
          "durationTicks": 256,
          "midi": 41,
          "name": "F2",
          "ticks": 6912,
          "time": 16.2,
          "velocity": 1
        },
        {
          "duration": 0.6000000000000014,
          "durationTicks": 256,
          "midi": 38,
          "name": "D2",
          "ticks": 6912,
          "time": 16.2,
          "velocity": 1
        },
        {
          "duration": 0.3000000000000007,
          "durationTicks": 128,
          "midi": 62,
          "name": "D4",
          "ticks": 7040,
          "time": 16.5,
          "velocity": 1
        },
        {
          "duration": 0.5999999999999979,
          "durationTicks": 256,
          "midi": 55,
          "name": "G3",
          "ticks": 7168,
          "time": 16.8,
          "velocity": 1
        },
        {
          "duration": 0.5999999999999979,
          "durationTicks": 256,
          "midi": 58,
          "name": "A#3",
          "ticks": 7168,
          "time": 16.8,
          "velocity": 1
        },
        {
          "duration": 0.5999999999999979,
          "durationTicks": 256,
          "midi": 67,
          "name": "G4",
          "ticks": 7168,
          "time": 16.8,
          "velocity": 1
        },
        {
          "duration": 0.5999999999999979,
          "durationTicks": 256,
          "midi": 39,
          "name": "D#2",
          "ticks": 7168,
          "time": 16.8,
          "velocity": 1
        },
        {
          "duration": 0.5999999999999979,
          "durationTicks": 256,
          "midi": 51,
          "name": "D#3",
          "ticks": 7168,
          "time": 16.8,
          "velocity": 1
        },
        {
          "duration": 0.6000000000000014,
          "durationTicks": 256,
          "midi": 55,
          "name": "G3",
          "ticks": 7424,
          "time": 17.4,
          "velocity": 1
        },
        {
          "duration": 0.6000000000000014,
          "durationTicks": 256,
          "midi": 58,
          "name": "A#3",
          "ticks": 7424,
          "time": 17.4,
          "velocity": 1
        },
        {
          "duration": 0.45000000000000284,
          "durationTicks": 192,
          "midi": 65,
          "name": "F4",
          "ticks": 7424,
          "time": 17.4,
          "velocity": 1
        },
        {
          "duration": 0.6000000000000014,
          "durationTicks": 256,
          "midi": 36,
          "name": "C2",
          "ticks": 7424,
          "time": 17.4,
          "velocity": 1
        },
        {
          "duration": 0.6000000000000014,
          "durationTicks": 256,
          "midi": 48,
          "name": "C3",
          "ticks": 7424,
          "time": 17.4,
          "velocity": 1
        },
        {
          "duration": 0.14999999999999858,
          "durationTicks": 64,
          "midi": 63,
          "name": "D#4",
          "ticks": 7616,
          "time": 17.85,
          "velocity": 1
        },
        {
          "duration": 0.6000000000000014,
          "durationTicks": 256,
          "midi": 53,
          "name": "F3",
          "ticks": 7680,
          "time": 18,
          "velocity": 1
        },
        {
          "duration": 0.6000000000000014,
          "durationTicks": 256,
          "midi": 58,
          "name": "A#3",
          "ticks": 7680,
          "time": 18,
          "velocity": 1
        },
        {
          "duration": 0.6000000000000014,
          "durationTicks": 256,
          "midi": 65,
          "name": "F4",
          "ticks": 7680,
          "time": 18,
          "velocity": 1
        },
        {
          "duration": 0.6000000000000014,
          "durationTicks": 256,
          "midi": 38,
          "name": "D2",
          "ticks": 7680,
          "time": 18,
          "velocity": 1
        },
        {
          "duration": 0.6000000000000014,
          "durationTicks": 256,
          "midi": 50,
          "name": "D3",
          "ticks": 7680,
          "time": 18,
          "velocity": 1
        },
        {
          "duration": 0.5999999999999979,
          "durationTicks": 256,
          "midi": 53,
          "name": "F3",
          "ticks": 7936,
          "time": 18.6,
          "velocity": 1
        },
        {
          "duration": 0.4499999999999993,
          "durationTicks": 192,
          "midi": 58,
          "name": "A#3",
          "ticks": 7936,
          "time": 18.6,
          "velocity": 1
        },
        {
          "duration": 0.5999999999999979,
          "durationTicks": 256,
          "midi": 38,
          "name": "D2",
          "ticks": 7936,
          "time": 18.6,
          "velocity": 1
        },
        {
          "duration": 0.5999999999999979,
          "durationTicks": 256,
          "midi": 50,
          "name": "D3",
          "ticks": 7936,
          "time": 18.6,
          "velocity": 1
        },
        {
          "duration": 0.14999999999999858,
          "durationTicks": 64,
          "midi": 58,
          "name": "A#3",
          "ticks": 8128,
          "time": 19.05,
          "velocity": 1
        },
        {
          "duration": 0.6000000000000014,
          "durationTicks": 256,
          "midi": 58,
          "name": "A#3",
          "ticks": 8192,
          "time": 19.2,
          "velocity": 1
        },
        {
          "duration": 0.6000000000000014,
          "durationTicks": 256,
          "midi": 64,
          "name": "E4",
          "ticks": 8192,
          "time": 19.2,
          "velocity": 1
        },
        {
          "duration": 0.6000000000000014,
          "durationTicks": 256,
          "midi": 70,
          "name": "A#4",
          "ticks": 8192,
          "time": 19.2,
          "velocity": 1
        },
        {
          "duration": 0.6000000000000014,
          "durationTicks": 256,
          "midi": 36,
          "name": "C2",
          "ticks": 8192,
          "time": 19.2,
          "velocity": 1
        },
        {
          "duration": 0.6000000000000014,
          "durationTicks": 256,
          "midi": 48,
          "name": "C3",
          "ticks": 8192,
          "time": 19.2,
          "velocity": 1
        },
        {
          "duration": 0.4499999999999993,
          "durationTicks": 192,
          "midi": 58,
          "name": "A#3",
          "ticks": 8448,
          "time": 19.8,
          "velocity": 1
        },
        {
          "duration": 0.4499999999999993,
          "durationTicks": 192,
          "midi": 62,
          "name": "D4",
          "ticks": 8448,
          "time": 19.8,
          "velocity": 1
        },
        {
          "duration": 0.4499999999999993,
          "durationTicks": 192,
          "midi": 69,
          "name": "A4",
          "ticks": 8448,
          "time": 19.8,
          "velocity": 1
        },
        {
          "duration": 0.6000000000000014,
          "durationTicks": 256,
          "midi": 36,
          "name": "C2",
          "ticks": 8448,
          "time": 19.8,
          "velocity": 1
        },
        {
          "duration": 0.6000000000000014,
          "durationTicks": 256,
          "midi": 48,
          "name": "C3",
          "ticks": 8448,
          "time": 19.8,
          "velocity": 1
        },
        {
          "duration": 0.15000000000000213,
          "durationTicks": 64,
          "midi": 58,
          "name": "A#3",
          "ticks": 8640,
          "time": 20.25,
          "velocity": 1
        },
        {
          "duration": 0.15000000000000213,
          "durationTicks": 64,
          "midi": 64,
          "name": "E4",
          "ticks": 8640,
          "time": 20.25,
          "velocity": 1
        },
        {
          "duration": 0.15000000000000213,
          "durationTicks": 64,
          "midi": 67,
          "name": "G4",
          "ticks": 8640,
          "time": 20.25,
          "velocity": 1
        },
        {
          "duration": 0.29999999999999716,
          "durationTicks": 128,
          "midi": 57,
          "name": "A3",
          "ticks": 8704,
          "time": 20.400000000000002,
          "velocity": 1
        },
        {
          "duration": 0.29999999999999716,
          "durationTicks": 128,
          "midi": 65,
          "name": "F4",
          "ticks": 8704,
          "time": 20.400000000000002,
          "velocity": 1
        },
        {
          "duration": 0.29999999999999716,
          "durationTicks": 128,
          "midi": 41,
          "name": "F2",
          "ticks": 8704,
          "time": 20.400000000000002,
          "velocity": 1
        },
        {
          "duration": 0.29999999999999716,
          "durationTicks": 128,
          "midi": 53,
          "name": "F3",
          "ticks": 8704,
          "time": 20.400000000000002,
          "velocity": 1
        },
        {
          "duration": 0.3000000000000007,
          "durationTicks": 128,
          "midi": 57,
          "name": "A3",
          "ticks": 8832,
          "time": 20.7,
          "velocity": 1
        },
        {
          "duration": 0.3000000000000007,
          "durationTicks": 128,
          "midi": 69,
          "name": "A4",
          "ticks": 8832,
          "time": 20.7,
          "velocity": 1
        },
        {
          "duration": 0.3000000000000007,
          "durationTicks": 128,
          "midi": 39,
          "name": "D#2",
          "ticks": 8832,
          "time": 20.7,
          "velocity": 1
        },
        {
          "duration": 0.3000000000000007,
          "durationTicks": 128,
          "midi": 51,
          "name": "D#3",
          "ticks": 8832,
          "time": 20.7,
          "velocity": 1
        },
        {
          "duration": 0.3000000000000007,
          "durationTicks": 128,
          "midi": 58,
          "name": "A#3",
          "ticks": 8960,
          "time": 21,
          "velocity": 1
        },
        {
          "duration": 0.3000000000000007,
          "durationTicks": 128,
          "midi": 67,
          "name": "G4",
          "ticks": 8960,
          "time": 21,
          "velocity": 1
        },
        {
          "duration": 0.3000000000000007,
          "durationTicks": 128,
          "midi": 70,
          "name": "A#4",
          "ticks": 8960,
          "time": 21,
          "velocity": 1
        },
        {
          "duration": 0.3000000000000007,
          "durationTicks": 128,
          "midi": 38,
          "name": "D2",
          "ticks": 8960,
          "time": 21,
          "velocity": 1
        },
        {
          "duration": 0.3000000000000007,
          "durationTicks": 128,
          "midi": 50,
          "name": "D3",
          "ticks": 8960,
          "time": 21,
          "velocity": 1
        },
        {
          "duration": 0.3000000000000007,
          "durationTicks": 128,
          "midi": 60,
          "name": "C4",
          "ticks": 9088,
          "time": 21.3,
          "velocity": 1
        },
        {
          "duration": 0.3000000000000007,
          "durationTicks": 128,
          "midi": 69,
          "name": "A4",
          "ticks": 9088,
          "time": 21.3,
          "velocity": 1
        },
        {
          "duration": 0.3000000000000007,
          "durationTicks": 128,
          "midi": 72,
          "name": "C5",
          "ticks": 9088,
          "time": 21.3,
          "velocity": 1
        },
        {
          "duration": 0.3000000000000007,
          "durationTicks": 128,
          "midi": 36,
          "name": "C2",
          "ticks": 9088,
          "time": 21.3,
          "velocity": 1
        },
        {
          "duration": 0.3000000000000007,
          "durationTicks": 128,
          "midi": 48,
          "name": "C3",
          "ticks": 9088,
          "time": 21.3,
          "velocity": 1
        },
        {
          "duration": 1.1999999999999993,
          "durationTicks": 512,
          "midi": 62,
          "name": "D4",
          "ticks": 9216,
          "time": 21.6,
          "velocity": 1
        },
        {
          "duration": 1.1999999999999993,
          "durationTicks": 512,
          "midi": 65,
          "name": "F4",
          "ticks": 9216,
          "time": 21.6,
          "velocity": 1
        },
        {
          "duration": 1.1999999999999993,
          "durationTicks": 512,
          "midi": 70,
          "name": "A#4",
          "ticks": 9216,
          "time": 21.6,
          "velocity": 1
        },
        {
          "duration": 1.1999999999999993,
          "durationTicks": 512,
          "midi": 74,
          "name": "D5",
          "ticks": 9216,
          "time": 21.6,
          "velocity": 1
        },
        {
          "duration": 0.3000000000000007,
          "durationTicks": 128,
          "midi": 34,
          "name": "A#1",
          "ticks": 9216,
          "time": 21.6,
          "velocity": 1
        },
        {
          "duration": 0.3000000000000007,
          "durationTicks": 128,
          "midi": 46,
          "name": "A#2",
          "ticks": 9216,
          "time": 21.6,
          "velocity": 1
        },
        {
          "duration": 0.29999999999999716,
          "durationTicks": 128,
          "midi": 33,
          "name": "A1",
          "ticks": 9344,
          "time": 21.900000000000002,
          "velocity": 1
        },
        {
          "duration": 0.29999999999999716,
          "durationTicks": 128,
          "midi": 45,
          "name": "A2",
          "ticks": 9344,
          "time": 21.900000000000002,
          "velocity": 1
        },
        {
          "duration": 0.3000000000000007,
          "durationTicks": 128,
          "midi": 34,
          "name": "A#1",
          "ticks": 9472,
          "time": 22.2,
          "velocity": 1
        },
        {
          "duration": 0.3000000000000007,
          "durationTicks": 128,
          "midi": 46,
          "name": "A#2",
          "ticks": 9472,
          "time": 22.2,
          "velocity": 1
        },
        {
          "duration": 0.3000000000000007,
          "durationTicks": 128,
          "midi": 36,
          "name": "C2",
          "ticks": 9600,
          "time": 22.5,
          "velocity": 1
        },
        {
          "duration": 0.3000000000000007,
          "durationTicks": 128,
          "midi": 48,
          "name": "C3",
          "ticks": 9600,
          "time": 22.5,
          "velocity": 1
        },
        {
          "duration": 0.3000000000000007,
          "durationTicks": 128,
          "midi": 60,
          "name": "C4",
          "ticks": 9728,
          "time": 22.8,
          "velocity": 1
        },
        {
          "duration": 0.3000000000000007,
          "durationTicks": 128,
          "midi": 69,
          "name": "A4",
          "ticks": 9728,
          "time": 22.8,
          "velocity": 1
        },
        {
          "duration": 0.3000000000000007,
          "durationTicks": 128,
          "midi": 72,
          "name": "C5",
          "ticks": 9728,
          "time": 22.8,
          "velocity": 1
        },
        {
          "duration": 0.6000000000000014,
          "durationTicks": 256,
          "midi": 38,
          "name": "D2",
          "ticks": 9728,
          "time": 22.8,
          "velocity": 1
        },
        {
          "duration": 0.6000000000000014,
          "durationTicks": 256,
          "midi": 50,
          "name": "D3",
          "ticks": 9728,
          "time": 22.8,
          "velocity": 1
        },
        {
          "duration": 0.3000000000000007,
          "durationTicks": 128,
          "midi": 58,
          "name": "A#3",
          "ticks": 9856,
          "time": 23.1,
          "velocity": 1
        },
        {
          "duration": 0.3000000000000007,
          "durationTicks": 128,
          "midi": 67,
          "name": "G4",
          "ticks": 9856,
          "time": 23.1,
          "velocity": 1
        },
        {
          "duration": 0.3000000000000007,
          "durationTicks": 128,
          "midi": 70,
          "name": "A#4",
          "ticks": 9856,
          "time": 23.1,
          "velocity": 1
        },
        {
          "duration": 0.29999999999999716,
          "durationTicks": 128,
          "midi": 57,
          "name": "A3",
          "ticks": 9984,
          "time": 23.400000000000002,
          "velocity": 1
        },
        {
          "duration": 0.29999999999999716,
          "durationTicks": 128,
          "midi": 65,
          "name": "F4",
          "ticks": 9984,
          "time": 23.400000000000002,
          "velocity": 1
        },
        {
          "duration": 0.29999999999999716,
          "durationTicks": 128,
          "midi": 69,
          "name": "A4",
          "ticks": 9984,
          "time": 23.400000000000002,
          "velocity": 1
        },
        {
          "duration": 0.5999999999999979,
          "durationTicks": 256,
          "midi": 38,
          "name": "D2",
          "ticks": 9984,
          "time": 23.400000000000002,
          "velocity": 1
        },
        {
          "duration": 0.5999999999999979,
          "durationTicks": 256,
          "midi": 50,
          "name": "D3",
          "ticks": 9984,
          "time": 23.400000000000002,
          "velocity": 1
        },
        {
          "duration": 0.3000000000000007,
          "durationTicks": 128,
          "midi": 58,
          "name": "A#3",
          "ticks": 10112,
          "time": 23.7,
          "velocity": 1
        },
        {
          "duration": 0.3000000000000007,
          "durationTicks": 128,
          "midi": 67,
          "name": "G4",
          "ticks": 10112,
          "time": 23.7,
          "velocity": 1
        },
        {
          "duration": 0.3000000000000007,
          "durationTicks": 128,
          "midi": 70,
          "name": "A#4",
          "ticks": 10112,
          "time": 23.7,
          "velocity": 1
        },
        {
          "duration": 0.9000000000000021,
          "durationTicks": 384,
          "midi": 60,
          "name": "C4",
          "ticks": 10240,
          "time": 24,
          "velocity": 1
        },
        {
          "duration": 0.9000000000000021,
          "durationTicks": 384,
          "midi": 65,
          "name": "F4",
          "ticks": 10240,
          "time": 24,
          "velocity": 1
        },
        {
          "duration": 0.9000000000000021,
          "durationTicks": 384,
          "midi": 69,
          "name": "A4",
          "ticks": 10240,
          "time": 24,
          "velocity": 1
        },
        {
          "duration": 0.9000000000000021,
          "durationTicks": 384,
          "midi": 72,
          "name": "C5",
          "ticks": 10240,
          "time": 24,
          "velocity": 1
        },
        {
          "duration": 1.8000000000000007,
          "durationTicks": 768,
          "midi": 53,
          "name": "F3",
          "ticks": 10240,
          "time": 24,
          "velocity": 1
        },
        {
          "duration": 0.3000000000000007,
          "durationTicks": 128,
          "midi": 41,
          "name": "F2",
          "ticks": 10240,
          "time": 24,
          "velocity": 1
        },
        {
          "duration": 0.3000000000000007,
          "durationTicks": 128,
          "midi": 41,
          "name": "F2",
          "ticks": 10368,
          "time": 24.3,
          "velocity": 1
        },
        {
          "duration": 0.3000000000000007,
          "durationTicks": 128,
          "midi": 45,
          "name": "A2",
          "ticks": 10496,
          "time": 24.6,
          "velocity": 1
        },
        {
          "duration": 0.29999999999999716,
          "durationTicks": 128,
          "midi": 57,
          "name": "A3",
          "ticks": 10624,
          "time": 24.900000000000002,
          "velocity": 1
        },
        {
          "duration": 0.29999999999999716,
          "durationTicks": 128,
          "midi": 60,
          "name": "C4",
          "ticks": 10624,
          "time": 24.900000000000002,
          "velocity": 1
        },
        {
          "duration": 0.29999999999999716,
          "durationTicks": 128,
          "midi": 65,
          "name": "F4",
          "ticks": 10624,
          "time": 24.900000000000002,
          "velocity": 1
        },
        {
          "duration": 0.29999999999999716,
          "durationTicks": 128,
          "midi": 48,
          "name": "C3",
          "ticks": 10624,
          "time": 24.900000000000002,
          "velocity": 1
        },
        {
          "duration": 0.3000000000000007,
          "durationTicks": 128,
          "midi": 57,
          "name": "A3",
          "ticks": 10752,
          "time": 25.2,
          "velocity": 1
        },
        {
          "duration": 0.3000000000000007,
          "durationTicks": 128,
          "midi": 60,
          "name": "C4",
          "ticks": 10752,
          "time": 25.2,
          "velocity": 1
        },
        {
          "duration": 0.3000000000000007,
          "durationTicks": 128,
          "midi": 65,
          "name": "F4",
          "ticks": 10752,
          "time": 25.2,
          "velocity": 1
        },
        {
          "duration": 0.6000000000000014,
          "durationTicks": 256,
          "midi": 41,
          "name": "F2",
          "ticks": 10752,
          "time": 25.2,
          "velocity": 1
        },
        {
          "duration": 0.3000000000000007,
          "durationTicks": 128,
          "midi": 57,
          "name": "A3",
          "ticks": 10880,
          "time": 25.5,
          "velocity": 1
        },
        {
          "duration": 0.3000000000000007,
          "durationTicks": 128,
          "midi": 65,
          "name": "F4",
          "ticks": 10880,
          "time": 25.5,
          "velocity": 1
        },
        {
          "duration": 0.3000000000000007,
          "durationTicks": 128,
          "midi": 69,
          "name": "A4",
          "ticks": 10880,
          "time": 25.5,
          "velocity": 1
        },
        {
          "duration": 0.3000000000000007,
          "durationTicks": 128,
          "midi": 58,
          "name": "A#3",
          "ticks": 11008,
          "time": 25.8,
          "velocity": 1
        },
        {
          "duration": 0.3000000000000007,
          "durationTicks": 128,
          "midi": 67,
          "name": "G4",
          "ticks": 11008,
          "time": 25.8,
          "velocity": 1
        },
        {
          "duration": 0.3000000000000007,
          "durationTicks": 128,
          "midi": 70,
          "name": "A#4",
          "ticks": 11008,
          "time": 25.8,
          "velocity": 1
        },
        {
          "duration": 0.3000000000000007,
          "durationTicks": 128,
          "midi": 51,
          "name": "D#3",
          "ticks": 11008,
          "time": 25.8,
          "velocity": 1
        },
        {
          "duration": 0.3000000000000007,
          "durationTicks": 128,
          "midi": 39,
          "name": "D#2",
          "ticks": 11008,
          "time": 25.8,
          "velocity": 1
        },
        {
          "duration": 0.3000000000000007,
          "durationTicks": 128,
          "midi": 60,
          "name": "C4",
          "ticks": 11136,
          "time": 26.1,
          "velocity": 1
        },
        {
          "duration": 0.3000000000000007,
          "durationTicks": 128,
          "midi": 69,
          "name": "A4",
          "ticks": 11136,
          "time": 26.1,
          "velocity": 1
        },
        {
          "duration": 0.3000000000000007,
          "durationTicks": 128,
          "midi": 72,
          "name": "C5",
          "ticks": 11136,
          "time": 26.1,
          "velocity": 1
        },
        {
          "duration": 0.3000000000000007,
          "durationTicks": 128,
          "midi": 50,
          "name": "D3",
          "ticks": 11136,
          "time": 26.1,
          "velocity": 1
        },
        {
          "duration": 0.3000000000000007,
          "durationTicks": 128,
          "midi": 38,
          "name": "D2",
          "ticks": 11136,
          "time": 26.1,
          "velocity": 1
        },
        {
          "duration": 1.1999999999999993,
          "durationTicks": 512,
          "midi": 58,
          "name": "A#3",
          "ticks": 11264,
          "time": 26.400000000000002,
          "velocity": 1
        },
        {
          "duration": 1.1999999999999993,
          "durationTicks": 512,
          "midi": 62,
          "name": "D4",
          "ticks": 11264,
          "time": 26.400000000000002,
          "velocity": 1
        },
        {
          "duration": 1.1999999999999993,
          "durationTicks": 512,
          "midi": 67,
          "name": "G4",
          "ticks": 11264,
          "time": 26.400000000000002,
          "velocity": 1
        },
        {
          "duration": 1.1999999999999993,
          "durationTicks": 512,
          "midi": 70,
          "name": "A#4",
          "ticks": 11264,
          "time": 26.400000000000002,
          "velocity": 1
        },
        {
          "duration": 0.29999999999999716,
          "durationTicks": 128,
          "midi": 43,
          "name": "G2",
          "ticks": 11264,
          "time": 26.400000000000002,
          "velocity": 1
        },
        {
          "duration": 0.5999999999999979,
          "durationTicks": 256,
          "midi": 31,
          "name": "G1",
          "ticks": 11264,
          "time": 26.400000000000002,
          "velocity": 1
        },
        {
          "duration": 0.3000000000000007,
          "durationTicks": 128,
          "midi": 38,
          "name": "D2",
          "ticks": 11392,
          "time": 26.7,
          "velocity": 1
        },
        {
          "duration": 0.3000000000000007,
          "durationTicks": 128,
          "midi": 43,
          "name": "G2",
          "ticks": 11520,
          "time": 27,
          "velocity": 1
        },
        {
          "duration": 0.3000000000000007,
          "durationTicks": 128,
          "midi": 31,
          "name": "G1",
          "ticks": 11520,
          "time": 27,
          "velocity": 1
        },
        {
          "duration": 0.3000000000000007,
          "durationTicks": 128,
          "midi": 45,
          "name": "A2",
          "ticks": 11648,
          "time": 27.3,
          "velocity": 1
        },
        {
          "duration": 0.3000000000000007,
          "durationTicks": 128,
          "midi": 33,
          "name": "A1",
          "ticks": 11648,
          "time": 27.3,
          "velocity": 1
        },
        {
          "duration": 0.3000000000000007,
          "durationTicks": 128,
          "midi": 57,
          "name": "A3",
          "ticks": 11776,
          "time": 27.6,
          "velocity": 1
        },
        {
          "duration": 0.3000000000000007,
          "durationTicks": 128,
          "midi": 65,
          "name": "F4",
          "ticks": 11776,
          "time": 27.6,
          "velocity": 1
        },
        {
          "duration": 0.3000000000000007,
          "durationTicks": 128,
          "midi": 69,
          "name": "A4",
          "ticks": 11776,
          "time": 27.6,
          "velocity": 1
        },
        {
          "duration": 0.5999999999999979,
          "durationTicks": 256,
          "midi": 46,
          "name": "A#2",
          "ticks": 11776,
          "time": 27.6,
          "velocity": 1
        },
        {
          "duration": 0.5999999999999979,
          "durationTicks": 256,
          "midi": 34,
          "name": "A#1",
          "ticks": 11776,
          "time": 27.6,
          "velocity": 1
        },
        {
          "duration": 0.29999999999999716,
          "durationTicks": 128,
          "midi": 55,
          "name": "G3",
          "ticks": 11904,
          "time": 27.900000000000002,
          "velocity": 1
        },
        {
          "duration": 0.29999999999999716,
          "durationTicks": 128,
          "midi": 64,
          "name": "E4",
          "ticks": 11904,
          "time": 27.900000000000002,
          "velocity": 1
        },
        {
          "duration": 0.29999999999999716,
          "durationTicks": 128,
          "midi": 67,
          "name": "G4",
          "ticks": 11904,
          "time": 27.900000000000002,
          "velocity": 1
        },
        {
          "duration": 0.3000000000000007,
          "durationTicks": 128,
          "midi": 53,
          "name": "F3",
          "ticks": 12032,
          "time": 28.2,
          "velocity": 1
        },
        {
          "duration": 0.3000000000000007,
          "durationTicks": 128,
          "midi": 62,
          "name": "D4",
          "ticks": 12032,
          "time": 28.2,
          "velocity": 1
        },
        {
          "duration": 0.3000000000000007,
          "durationTicks": 128,
          "midi": 65,
          "name": "F4",
          "ticks": 12032,
          "time": 28.2,
          "velocity": 1
        },
        {
          "duration": 0.6000000000000014,
          "durationTicks": 256,
          "midi": 48,
          "name": "C3",
          "ticks": 12032,
          "time": 28.2,
          "velocity": 1
        },
        {
          "duration": 0.6000000000000014,
          "durationTicks": 256,
          "midi": 36,
          "name": "C2",
          "ticks": 12032,
          "time": 28.2,
          "velocity": 1
        },
        {
          "duration": 0.3000000000000007,
          "durationTicks": 128,
          "midi": 55,
          "name": "G3",
          "ticks": 12160,
          "time": 28.5,
          "velocity": 1
        },
        {
          "duration": 0.3000000000000007,
          "durationTicks": 128,
          "midi": 64,
          "name": "E4",
          "ticks": 12160,
          "time": 28.5,
          "velocity": 1
        },
        {
          "duration": 0.3000000000000007,
          "durationTicks": 128,
          "midi": 67,
          "name": "G4",
          "ticks": 12160,
          "time": 28.5,
          "velocity": 1
        },
        {
          "duration": 0.8999999999999986,
          "durationTicks": 384,
          "midi": 57,
          "name": "A3",
          "ticks": 12288,
          "time": 28.8,
          "velocity": 1
        },
        {
          "duration": 0.8999999999999986,
          "durationTicks": 384,
          "midi": 62,
          "name": "D4",
          "ticks": 12288,
          "time": 28.8,
          "velocity": 1
        },
        {
          "duration": 0.8999999999999986,
          "durationTicks": 384,
          "midi": 65,
          "name": "F4",
          "ticks": 12288,
          "time": 28.8,
          "velocity": 1
        },
        {
          "duration": 0.8999999999999986,
          "durationTicks": 384,
          "midi": 69,
          "name": "A4",
          "ticks": 12288,
          "time": 28.8,
          "velocity": 1
        },
        {
          "duration": 1.8000000000000007,
          "durationTicks": 768,
          "midi": 50,
          "name": "D3",
          "ticks": 12288,
          "time": 28.8,
          "velocity": 1
        },
        {
          "duration": 0.3000000000000007,
          "durationTicks": 128,
          "midi": 38,
          "name": "D2",
          "ticks": 12288,
          "time": 28.8,
          "velocity": 1
        },
        {
          "duration": 0.3000000000000007,
          "durationTicks": 128,
          "midi": 38,
          "name": "D2",
          "ticks": 12416,
          "time": 29.1,
          "velocity": 1
        },
        {
          "duration": 0.29999999999999716,
          "durationTicks": 128,
          "midi": 41,
          "name": "F2",
          "ticks": 12544,
          "time": 29.400000000000002,
          "velocity": 1
        },
        {
          "duration": 0.3000000000000007,
          "durationTicks": 128,
          "midi": 53,
          "name": "F3",
          "ticks": 12672,
          "time": 29.7,
          "velocity": 1
        },
        {
          "duration": 0.3000000000000007,
          "durationTicks": 128,
          "midi": 57,
          "name": "A3",
          "ticks": 12672,
          "time": 29.7,
          "velocity": 1
        },
        {
          "duration": 0.3000000000000007,
          "durationTicks": 128,
          "midi": 62,
          "name": "D4",
          "ticks": 12672,
          "time": 29.7,
          "velocity": 1
        },
        {
          "duration": 0.3000000000000007,
          "durationTicks": 128,
          "midi": 45,
          "name": "A2",
          "ticks": 12672,
          "time": 29.7,
          "velocity": 1
        },
        {
          "duration": 0.3000000000000007,
          "durationTicks": 128,
          "midi": 53,
          "name": "F3",
          "ticks": 12800,
          "time": 30,
          "velocity": 1
        },
        {
          "duration": 0.3000000000000007,
          "durationTicks": 128,
          "midi": 57,
          "name": "A3",
          "ticks": 12800,
          "time": 30,
          "velocity": 1
        },
        {
          "duration": 0.3000000000000007,
          "durationTicks": 128,
          "midi": 62,
          "name": "D4",
          "ticks": 12800,
          "time": 30,
          "velocity": 1
        },
        {
          "duration": 0.6000000000000014,
          "durationTicks": 256,
          "midi": 38,
          "name": "D2",
          "ticks": 12800,
          "time": 30,
          "velocity": 1
        },
        {
          "duration": 0.3000000000000007,
          "durationTicks": 128,
          "midi": 53,
          "name": "F3",
          "ticks": 12928,
          "time": 30.3,
          "velocity": 1
        },
        {
          "duration": 0.3000000000000007,
          "durationTicks": 128,
          "midi": 62,
          "name": "D4",
          "ticks": 12928,
          "time": 30.3,
          "velocity": 1
        },
        {
          "duration": 0.3000000000000007,
          "durationTicks": 128,
          "midi": 65,
          "name": "F4",
          "ticks": 12928,
          "time": 30.3,
          "velocity": 1
        },
        {
          "duration": 0.29999999999999716,
          "durationTicks": 128,
          "midi": 55,
          "name": "G3",
          "ticks": 13056,
          "time": 30.6,
          "velocity": 1
        },
        {
          "duration": 0.29999999999999716,
          "durationTicks": 128,
          "midi": 58,
          "name": "A#3",
          "ticks": 13056,
          "time": 30.6,
          "velocity": 1
        },
        {
          "duration": 0.29999999999999716,
          "durationTicks": 128,
          "midi": 63,
          "name": "D#4",
          "ticks": 13056,
          "time": 30.6,
          "velocity": 1
        },
        {
          "duration": 0.29999999999999716,
          "durationTicks": 128,
          "midi": 67,
          "name": "G4",
          "ticks": 13056,
          "time": 30.6,
          "velocity": 1
        },
        {
          "duration": 0.5999999999999979,
          "durationTicks": 256,
          "midi": 48,
          "name": "C3",
          "ticks": 13056,
          "time": 30.6,
          "velocity": 1
        },
        {
          "duration": 0.5999999999999979,
          "durationTicks": 256,
          "midi": 36,
          "name": "C2",
          "ticks": 13056,
          "time": 30.6,
          "velocity": 1
        },
        {
          "duration": 0.3000000000000007,
          "durationTicks": 128,
          "midi": 57,
          "name": "A3",
          "ticks": 13184,
          "time": 30.9,
          "velocity": 1
        },
        {
          "duration": 0.3000000000000007,
          "durationTicks": 128,
          "midi": 65,
          "name": "F4",
          "ticks": 13184,
          "time": 30.9,
          "velocity": 1
        },
        {
          "duration": 0.3000000000000007,
          "durationTicks": 128,
          "midi": 69,
          "name": "A4",
          "ticks": 13184,
          "time": 30.9,
          "velocity": 1
        },
        {
          "duration": 0.6000000000000014,
          "durationTicks": 256,
          "midi": 58,
          "name": "A#3",
          "ticks": 13312,
          "time": 31.2,
          "velocity": 1
        },
        {
          "duration": 0.6000000000000014,
          "durationTicks": 256,
          "midi": 67,
          "name": "G4",
          "ticks": 13312,
          "time": 31.2,
          "velocity": 1
        },
        {
          "duration": 0.6000000000000014,
          "durationTicks": 256,
          "midi": 70,
          "name": "A#4",
          "ticks": 13312,
          "time": 31.2,
          "velocity": 1
        },
        {
          "duration": 0.3000000000000007,
          "durationTicks": 128,
          "midi": 27,
          "name": "D#1",
          "ticks": 13312,
          "time": 31.2,
          "velocity": 1
        },
        {
          "duration": 0.3000000000000007,
          "durationTicks": 128,
          "midi": 39,
          "name": "D#2",
          "ticks": 13312,
          "time": 31.2,
          "velocity": 1
        },
        {
          "duration": 0.3000000000000007,
          "durationTicks": 128,
          "midi": 31,
          "name": "G1",
          "ticks": 13440,
          "time": 31.5,
          "velocity": 1
        },
        {
          "duration": 0.3000000000000007,
          "durationTicks": 128,
          "midi": 43,
          "name": "G2",
          "ticks": 13440,
          "time": 31.5,
          "velocity": 1
        },
        {
          "duration": 0.5999999999999979,
          "durationTicks": 256,
          "midi": 58,
          "name": "A#3",
          "ticks": 13568,
          "time": 31.8,
          "velocity": 1
        },
        {
          "duration": 0.4499999999999993,
          "durationTicks": 192,
          "midi": 63,
          "name": "D#4",
          "ticks": 13568,
          "time": 31.8,
          "velocity": 1
        },
        {
          "duration": 0.4499999999999993,
          "durationTicks": 192,
          "midi": 67,
          "name": "G4",
          "ticks": 13568,
          "time": 31.8,
          "velocity": 1
        },
        {
          "duration": 0.3000000000000007,
          "durationTicks": 128,
          "midi": 34,
          "name": "A#1",
          "ticks": 13568,
          "time": 31.8,
          "velocity": 1
        },
        {
          "duration": 0.3000000000000007,
          "durationTicks": 128,
          "midi": 46,
          "name": "A#2",
          "ticks": 13568,
          "time": 31.8,
          "velocity": 1
        },
        {
          "duration": 0.29999999999999716,
          "durationTicks": 128,
          "midi": 33,
          "name": "A1",
          "ticks": 13696,
          "time": 32.1,
          "velocity": 1
        },
        {
          "duration": 0.29999999999999716,
          "durationTicks": 128,
          "midi": 45,
          "name": "A2",
          "ticks": 13696,
          "time": 32.1,
          "velocity": 1
        },
        {
          "duration": 0.14999999999999858,
          "durationTicks": 64,
          "midi": 69,
          "name": "A4",
          "ticks": 13760,
          "time": 32.25,
          "velocity": 1
        },
        {
          "duration": 0.6000000000000014,
          "durationTicks": 256,
          "midi": 58,
          "name": "A#3",
          "ticks": 13824,
          "time": 32.4,
          "velocity": 1
        },
        {
          "duration": 0.6000000000000014,
          "durationTicks": 256,
          "midi": 67,
          "name": "G4",
          "ticks": 13824,
          "time": 32.4,
          "velocity": 1
        },
        {
          "duration": 0.6000000000000014,
          "durationTicks": 256,
          "midi": 70,
          "name": "A#4",
          "ticks": 13824,
          "time": 32.4,
          "velocity": 1
        },
        {
          "duration": 0.6000000000000014,
          "durationTicks": 256,
          "midi": 31,
          "name": "G1",
          "ticks": 13824,
          "time": 32.4,
          "velocity": 1
        },
        {
          "duration": 0.6000000000000014,
          "durationTicks": 256,
          "midi": 43,
          "name": "G2",
          "ticks": 13824,
          "time": 32.4,
          "velocity": 1
        },
        {
          "duration": 0.6000000000000014,
          "durationTicks": 256,
          "midi": 58,
          "name": "A#3",
          "ticks": 14080,
          "time": 33,
          "velocity": 1
        },
        {
          "duration": 0.44999999999999574,
          "durationTicks": 192,
          "midi": 63,
          "name": "D#4",
          "ticks": 14080,
          "time": 33,
          "velocity": 1
        },
        {
          "duration": 0.44999999999999574,
          "durationTicks": 192,
          "midi": 67,
          "name": "G4",
          "ticks": 14080,
          "time": 33,
          "velocity": 1
        },
        {
          "duration": 0.29999999999999716,
          "durationTicks": 128,
          "midi": 31,
          "name": "G1",
          "ticks": 14080,
          "time": 33,
          "velocity": 1
        },
        {
          "duration": 0.29999999999999716,
          "durationTicks": 128,
          "midi": 43,
          "name": "G2",
          "ticks": 14080,
          "time": 33,
          "velocity": 1
        },
        {
          "duration": 0.30000000000000426,
          "durationTicks": 128,
          "midi": 29,
          "name": "F1",
          "ticks": 14208,
          "time": 33.3,
          "velocity": 1
        },
        {
          "duration": 0.30000000000000426,
          "durationTicks": 128,
          "midi": 41,
          "name": "F2",
          "ticks": 14208,
          "time": 33.3,
          "velocity": 1
        },
        {
          "duration": 0.15000000000000568,
          "durationTicks": 64,
          "midi": 69,
          "name": "A4",
          "ticks": 14272,
          "time": 33.449999999999996,
          "velocity": 1
        },
        {
          "duration": 0.6000000000000014,
          "durationTicks": 256,
          "midi": 58,
          "name": "A#3",
          "ticks": 14336,
          "time": 33.6,
          "velocity": 1
        },
        {
          "duration": 0.6000000000000014,
          "durationTicks": 256,
          "midi": 67,
          "name": "G4",
          "ticks": 14336,
          "time": 33.6,
          "velocity": 1
        },
        {
          "duration": 0.6000000000000014,
          "durationTicks": 256,
          "midi": 70,
          "name": "A#4",
          "ticks": 14336,
          "time": 33.6,
          "velocity": 1
        },
        {
          "duration": 0.8999999999999986,
          "durationTicks": 384,
          "midi": 27,
          "name": "D#1",
          "ticks": 14336,
          "time": 33.6,
          "velocity": 1
        },
        {
          "duration": 0.8999999999999986,
          "durationTicks": 384,
          "midi": 39,
          "name": "D#2",
          "ticks": 14336,
          "time": 33.6,
          "velocity": 1
        },
        {
          "duration": 0.29999999999999716,
          "durationTicks": 128,
          "midi": 58,
          "name": "A#3",
          "ticks": 14592,
          "time": 34.2,
          "velocity": 1
        },
        {
          "duration": 0.29999999999999716,
          "durationTicks": 128,
          "midi": 63,
          "name": "D#4",
          "ticks": 14592,
          "time": 34.2,
          "velocity": 1
        },
        {
          "duration": 0.29999999999999716,
          "durationTicks": 128,
          "midi": 67,
          "name": "G4",
          "ticks": 14592,
          "time": 34.2,
          "velocity": 1
        },
        {
          "duration": 0.29999999999999716,
          "durationTicks": 128,
          "midi": 58,
          "name": "A#3",
          "ticks": 14720,
          "time": 34.5,
          "velocity": 1
        },
        {
          "duration": 0.29999999999999716,
          "durationTicks": 128,
          "midi": 67,
          "name": "G4",
          "ticks": 14720,
          "time": 34.5,
          "velocity": 1
        },
        {
          "duration": 0.29999999999999716,
          "durationTicks": 128,
          "midi": 70,
          "name": "A#4",
          "ticks": 14720,
          "time": 34.5,
          "velocity": 1
        },
        {
          "duration": 0.29999999999999716,
          "durationTicks": 128,
          "midi": 34,
          "name": "A#1",
          "ticks": 14720,
          "time": 34.5,
          "velocity": 1
        },
        {
          "duration": 0.29999999999999716,
          "durationTicks": 128,
          "midi": 46,
          "name": "A#2",
          "ticks": 14720,
          "time": 34.5,
          "velocity": 1
        },
        {
          "duration": 1.2000000000000028,
          "durationTicks": 512,
          "midi": 63,
          "name": "D#4",
          "ticks": 14848,
          "time": 34.8,
          "velocity": 1
        },
        {
          "duration": 1.2000000000000028,
          "durationTicks": 512,
          "midi": 67,
          "name": "G4",
          "ticks": 14848,
          "time": 34.8,
          "velocity": 1
        },
        {
          "duration": 1.2000000000000028,
          "durationTicks": 512,
          "midi": 70,
          "name": "A#4",
          "ticks": 14848,
          "time": 34.8,
          "velocity": 1
        },
        {
          "duration": 1.2000000000000028,
          "durationTicks": 512,
          "midi": 75,
          "name": "D#5",
          "ticks": 14848,
          "time": 34.8,
          "velocity": 1
        },
        {
          "duration": 0.30000000000000426,
          "durationTicks": 128,
          "midi": 43,
          "name": "G2",
          "ticks": 14848,
          "time": 34.8,
          "velocity": 1
        },
        {
          "duration": 0.30000000000000426,
          "durationTicks": 128,
          "midi": 55,
          "name": "G3",
          "ticks": 14848,
          "time": 34.8,
          "velocity": 1
        },
        {
          "duration": 0.29999999999999716,
          "durationTicks": 128,
          "midi": 41,
          "name": "F2",
          "ticks": 14976,
          "time": 35.1,
          "velocity": 1
        },
        {
          "duration": 0.29999999999999716,
          "durationTicks": 128,
          "midi": 53,
          "name": "F3",
          "ticks": 14976,
          "time": 35.1,
          "velocity": 1
        },
        {
          "duration": 0.30000000000000426,
          "durationTicks": 128,
          "midi": 39,
          "name": "D#2",
          "ticks": 15104,
          "time": 35.4,
          "velocity": 1
        },
        {
          "duration": 0.30000000000000426,
          "durationTicks": 128,
          "midi": 51,
          "name": "D#3",
          "ticks": 15104,
          "time": 35.4,
          "velocity": 1
        },
        {
          "duration": 0.29999999999999716,
          "durationTicks": 128,
          "midi": 38,
          "name": "D2",
          "ticks": 15232,
          "time": 35.7,
          "velocity": 1
        },
        {
          "duration": 0.29999999999999716,
          "durationTicks": 128,
          "midi": 50,
          "name": "D3",
          "ticks": 15232,
          "time": 35.7,
          "velocity": 1
        },
        {
          "duration": 1.2000000000000028,
          "durationTicks": 512,
          "midi": 75,
          "name": "D#5",
          "ticks": 15360,
          "time": 36,
          "velocity": 1
        },
        {
          "duration": 1.2000000000000028,
          "durationTicks": 512,
          "midi": 63,
          "name": "D#4",
          "ticks": 15360,
          "time": 36,
          "velocity": 1
        },
        {
          "duration": 1.2000000000000028,
          "durationTicks": 512,
          "midi": 67,
          "name": "G4",
          "ticks": 15360,
          "time": 36,
          "velocity": 1
        },
        {
          "duration": 1.2000000000000028,
          "durationTicks": 512,
          "midi": 70,
          "name": "A#4",
          "ticks": 15360,
          "time": 36,
          "velocity": 1
        },
        {
          "duration": 0.6000000000000014,
          "durationTicks": 256,
          "midi": 36,
          "name": "C2",
          "ticks": 15360,
          "time": 36,
          "velocity": 1
        },
        {
          "duration": 0.6000000000000014,
          "durationTicks": 256,
          "midi": 48,
          "name": "C3",
          "ticks": 15360,
          "time": 36,
          "velocity": 1
        },
        {
          "duration": 0.29999999999999716,
          "durationTicks": 128,
          "midi": 38,
          "name": "D2",
          "ticks": 15616,
          "time": 36.6,
          "velocity": 1
        },
        {
          "duration": 0.29999999999999716,
          "durationTicks": 128,
          "midi": 50,
          "name": "D3",
          "ticks": 15616,
          "time": 36.6,
          "velocity": 1
        },
        {
          "duration": 0.30000000000000426,
          "durationTicks": 128,
          "midi": 39,
          "name": "D#2",
          "ticks": 15744,
          "time": 36.9,
          "velocity": 1
        },
        {
          "duration": 0.30000000000000426,
          "durationTicks": 128,
          "midi": 51,
          "name": "D#3",
          "ticks": 15744,
          "time": 36.9,
          "velocity": 1
        },
        {
          "duration": 0.29999999999999716,
          "durationTicks": 128,
          "midi": 74,
          "name": "D5",
          "ticks": 15872,
          "time": 37.2,
          "velocity": 1
        },
        {
          "duration": 0.5999999999999943,
          "durationTicks": 256,
          "midi": 65,
          "name": "F4",
          "ticks": 15872,
          "time": 37.2,
          "velocity": 1
        },
        {
          "duration": 0.5999999999999943,
          "durationTicks": 256,
          "midi": 69,
          "name": "A4",
          "ticks": 15872,
          "time": 37.2,
          "velocity": 1
        },
        {
          "duration": 0.5999999999999943,
          "durationTicks": 256,
          "midi": 41,
          "name": "F2",
          "ticks": 15872,
          "time": 37.2,
          "velocity": 1
        },
        {
          "duration": 0.5999999999999943,
          "durationTicks": 256,
          "midi": 53,
          "name": "F3",
          "ticks": 15872,
          "time": 37.2,
          "velocity": 1
        },
        {
          "duration": 0.29999999999999716,
          "durationTicks": 128,
          "midi": 72,
          "name": "C5",
          "ticks": 16000,
          "time": 37.5,
          "velocity": 1
        },
        {
          "duration": 0.30000000000000426,
          "durationTicks": 128,
          "midi": 67,
          "name": "G4",
          "ticks": 16128,
          "time": 37.8,
          "velocity": 1
        },
        {
          "duration": 0.30000000000000426,
          "durationTicks": 128,
          "midi": 70,
          "name": "A#4",
          "ticks": 16128,
          "time": 37.8,
          "velocity": 1
        },
        {
          "duration": 0.6000000000000014,
          "durationTicks": 256,
          "midi": 63,
          "name": "D#4",
          "ticks": 16128,
          "time": 37.8,
          "velocity": 1
        },
        {
          "duration": 0.6000000000000014,
          "durationTicks": 256,
          "midi": 29,
          "name": "F1",
          "ticks": 16128,
          "time": 37.8,
          "velocity": 1
        },
        {
          "duration": 0.6000000000000014,
          "durationTicks": 256,
          "midi": 41,
          "name": "F2",
          "ticks": 16128,
          "time": 37.8,
          "velocity": 1
        },
        {
          "duration": 0.29999999999999716,
          "durationTicks": 128,
          "midi": 65,
          "name": "F4",
          "ticks": 16256,
          "time": 38.1,
          "velocity": 1
        },
        {
          "duration": 0.29999999999999716,
          "durationTicks": 128,
          "midi": 69,
          "name": "A4",
          "ticks": 16256,
          "time": 38.1,
          "velocity": 1
        },
        {
          "duration": 0.29999999999999716,
          "durationTicks": 128,
          "midi": 72,
          "name": "C5",
          "ticks": 16256,
          "time": 38.1,
          "velocity": 1
        },
        {
          "duration": 0.8999999999999986,
          "durationTicks": 384,
          "midi": 62,
          "name": "D4",
          "ticks": 16384,
          "time": 38.4,
          "velocity": 1
        },
        {
          "duration": 0.8999999999999986,
          "durationTicks": 384,
          "midi": 65,
          "name": "F4",
          "ticks": 16384,
          "time": 38.4,
          "velocity": 1
        },
        {
          "duration": 0.8999999999999986,
          "durationTicks": 384,
          "midi": 70,
          "name": "A#4",
          "ticks": 16384,
          "time": 38.4,
          "velocity": 1
        },
        {
          "duration": 0.8999999999999986,
          "durationTicks": 384,
          "midi": 74,
          "name": "D5",
          "ticks": 16384,
          "time": 38.4,
          "velocity": 1
        },
        {
          "duration": 0.6000000000000014,
          "durationTicks": 256,
          "midi": 34,
          "name": "A#1",
          "ticks": 16384,
          "time": 38.4,
          "velocity": 1
        },
        {
          "duration": 0.6000000000000014,
          "durationTicks": 256,
          "midi": 46,
          "name": "A#2",
          "ticks": 16384,
          "time": 38.4,
          "velocity": 1
        },
        {
          "duration": 0.6000000000000014,
          "durationTicks": 256,
          "midi": 36,
          "name": "C2",
          "ticks": 16640,
          "time": 39,
          "velocity": 1
        },
        {
          "duration": 0.6000000000000014,
          "durationTicks": 256,
          "midi": 48,
          "name": "C3",
          "ticks": 16640,
          "time": 39,
          "velocity": 1
        },
        {
          "duration": 0.30000000000000426,
          "durationTicks": 128,
          "midi": 62,
          "name": "D4",
          "ticks": 16768,
          "time": 39.3,
          "velocity": 1
        },
        {
          "duration": 0.30000000000000426,
          "durationTicks": 128,
          "midi": 65,
          "name": "F4",
          "ticks": 16768,
          "time": 39.3,
          "velocity": 1
        },
        {
          "duration": 0.30000000000000426,
          "durationTicks": 128,
          "midi": 70,
          "name": "A#4",
          "ticks": 16768,
          "time": 39.3,
          "velocity": 1
        },
        {
          "duration": 1.1999999999999957,
          "durationTicks": 512,
          "midi": 62,
          "name": "D4",
          "ticks": 16896,
          "time": 39.6,
          "velocity": 1
        },
        {
          "duration": 1.1999999999999957,
          "durationTicks": 512,
          "midi": 65,
          "name": "F4",
          "ticks": 16896,
          "time": 39.6,
          "velocity": 1
        },
        {
          "duration": 1.1999999999999957,
          "durationTicks": 512,
          "midi": 70,
          "name": "A#4",
          "ticks": 16896,
          "time": 39.6,
          "velocity": 1
        },
        {
          "duration": 0.6000000000000014,
          "durationTicks": 256,
          "midi": 38,
          "name": "D2",
          "ticks": 16896,
          "time": 39.6,
          "velocity": 1
        },
        {
          "duration": 0.6000000000000014,
          "durationTicks": 256,
          "midi": 50,
          "name": "D3",
          "ticks": 16896,
          "time": 39.6,
          "velocity": 1
        },
        {
          "duration": 0.5999999999999943,
          "durationTicks": 256,
          "midi": 41,
          "name": "F2",
          "ticks": 17152,
          "time": 40.2,
          "velocity": 1
        },
        {
          "duration": 0.5999999999999943,
          "durationTicks": 256,
          "midi": 53,
          "name": "F3",
          "ticks": 17152,
          "time": 40.2,
          "velocity": 1
        },
        {
          "duration": 1.2000000000000028,
          "durationTicks": 512,
          "midi": 72,
          "name": "C5",
          "ticks": 17408,
          "time": 40.8,
          "velocity": 1
        },
        {
          "duration": 1.2000000000000028,
          "durationTicks": 512,
          "midi": 60,
          "name": "C4",
          "ticks": 17408,
          "time": 40.8,
          "velocity": 1
        },
        {
          "duration": 1.2000000000000028,
          "durationTicks": 512,
          "midi": 63,
          "name": "D#4",
          "ticks": 17408,
          "time": 40.8,
          "velocity": 1
        },
        {
          "duration": 1.2000000000000028,
          "durationTicks": 512,
          "midi": 67,
          "name": "G4",
          "ticks": 17408,
          "time": 40.8,
          "velocity": 1
        },
        {
          "duration": 0.6000000000000014,
          "durationTicks": 256,
          "midi": 33,
          "name": "A1",
          "ticks": 17408,
          "time": 40.8,
          "velocity": 1
        },
        {
          "duration": 0.6000000000000014,
          "durationTicks": 256,
          "midi": 45,
          "name": "A2",
          "ticks": 17408,
          "time": 40.8,
          "velocity": 1
        },
        {
          "duration": 0.30000000000000426,
          "durationTicks": 128,
          "midi": 34,
          "name": "A#1",
          "ticks": 17664,
          "time": 41.4,
          "velocity": 1
        },
        {
          "duration": 0.30000000000000426,
          "durationTicks": 128,
          "midi": 46,
          "name": "A#2",
          "ticks": 17664,
          "time": 41.4,
          "velocity": 1
        },
        {
          "duration": 0.29999999999999716,
          "durationTicks": 128,
          "midi": 36,
          "name": "C2",
          "ticks": 17792,
          "time": 41.7,
          "velocity": 1
        },
        {
          "duration": 0.29999999999999716,
          "durationTicks": 128,
          "midi": 48,
          "name": "C3",
          "ticks": 17792,
          "time": 41.7,
          "velocity": 1
        },
        {
          "duration": 0.29999999999999716,
          "durationTicks": 128,
          "midi": 70,
          "name": "A#4",
          "ticks": 17920,
          "time": 42,
          "velocity": 1
        },
        {
          "duration": 0.6000000000000014,
          "durationTicks": 256,
          "midi": 62,
          "name": "D4",
          "ticks": 17920,
          "time": 42,
          "velocity": 1
        },
        {
          "duration": 0.6000000000000014,
          "durationTicks": 256,
          "midi": 66,
          "name": "F#4",
          "ticks": 17920,
          "time": 42,
          "velocity": 1
        },
        {
          "duration": 0.6000000000000014,
          "durationTicks": 256,
          "midi": 38,
          "name": "D2",
          "ticks": 17920,
          "time": 42,
          "velocity": 1
        },
        {
          "duration": 0.6000000000000014,
          "durationTicks": 256,
          "midi": 50,
          "name": "D3",
          "ticks": 17920,
          "time": 42,
          "velocity": 1
        },
        {
          "duration": 0.30000000000000426,
          "durationTicks": 128,
          "midi": 69,
          "name": "A4",
          "ticks": 18048,
          "time": 42.3,
          "velocity": 1
        },
        {
          "duration": 0.29999999999999716,
          "durationTicks": 128,
          "midi": 64,
          "name": "E4",
          "ticks": 18176,
          "time": 42.6,
          "velocity": 1
        },
        {
          "duration": 0.29999999999999716,
          "durationTicks": 128,
          "midi": 67,
          "name": "G4",
          "ticks": 18176,
          "time": 42.6,
          "velocity": 1
        },
        {
          "duration": 0.6000000000000014,
          "durationTicks": 256,
          "midi": 60,
          "name": "C4",
          "ticks": 18176,
          "time": 42.6,
          "velocity": 1
        },
        {
          "duration": 0.6000000000000014,
          "durationTicks": 256,
          "midi": 38,
          "name": "D2",
          "ticks": 18176,
          "time": 42.6,
          "velocity": 1
        },
        {
          "duration": 0.6000000000000014,
          "durationTicks": 256,
          "midi": 50,
          "name": "D3",
          "ticks": 18176,
          "time": 42.6,
          "velocity": 1
        },
        {
          "duration": 0.30000000000000426,
          "durationTicks": 128,
          "midi": 62,
          "name": "D4",
          "ticks": 18304,
          "time": 42.9,
          "velocity": 1
        },
        {
          "duration": 0.30000000000000426,
          "durationTicks": 128,
          "midi": 66,
          "name": "F#4",
          "ticks": 18304,
          "time": 42.9,
          "velocity": 1
        },
        {
          "duration": 0.30000000000000426,
          "durationTicks": 128,
          "midi": 69,
          "name": "A4",
          "ticks": 18304,
          "time": 42.9,
          "velocity": 1
        },
        {
          "duration": 0.8999999999999986,
          "durationTicks": 384,
          "midi": 58,
          "name": "A#3",
          "ticks": 18432,
          "time": 43.2,
          "velocity": 1
        },
        {
          "duration": 0.8999999999999986,
          "durationTicks": 384,
          "midi": 62,
          "name": "D4",
          "ticks": 18432,
          "time": 43.2,
          "velocity": 1
        },
        {
          "duration": 0.8999999999999986,
          "durationTicks": 384,
          "midi": 67,
          "name": "G4",
          "ticks": 18432,
          "time": 43.2,
          "velocity": 1
        },
        {
          "duration": 0.8999999999999986,
          "durationTicks": 384,
          "midi": 70,
          "name": "A#4",
          "ticks": 18432,
          "time": 43.2,
          "velocity": 1
        },
        {
          "duration": 0.29999999999999716,
          "durationTicks": 128,
          "midi": 31,
          "name": "G1",
          "ticks": 18432,
          "time": 43.2,
          "velocity": 1
        },
        {
          "duration": 0.29999999999999716,
          "durationTicks": 128,
          "midi": 43,
          "name": "G2",
          "ticks": 18432,
          "time": 43.2,
          "velocity": 1
        },
        {
          "duration": 0.29999999999999716,
          "durationTicks": 128,
          "midi": 33,
          "name": "A1",
          "ticks": 18560,
          "time": 43.5,
          "velocity": 1
        },
        {
          "duration": 0.29999999999999716,
          "durationTicks": 128,
          "midi": 45,
          "name": "A2",
          "ticks": 18560,
          "time": 43.5,
          "velocity": 1
        },
        {
          "duration": 0.30000000000000426,
          "durationTicks": 128,
          "midi": 34,
          "name": "A#1",
          "ticks": 18688,
          "time": 43.8,
          "velocity": 1
        },
        {
          "duration": 0.30000000000000426,
          "durationTicks": 128,
          "midi": 46,
          "name": "A#2",
          "ticks": 18688,
          "time": 43.8,
          "velocity": 1
        },
        {
          "duration": 0.29999999999999716,
          "durationTicks": 128,
          "midi": 58,
          "name": "A#3",
          "ticks": 18816,
          "time": 44.1,
          "velocity": 1
        },
        {
          "duration": 0.29999999999999716,
          "durationTicks": 128,
          "midi": 62,
          "name": "D4",
          "ticks": 18816,
          "time": 44.1,
          "velocity": 1
        },
        {
          "duration": 0.29999999999999716,
          "durationTicks": 128,
          "midi": 67,
          "name": "G4",
          "ticks": 18816,
          "time": 44.1,
          "velocity": 1
        },
        {
          "duration": 0.29999999999999716,
          "durationTicks": 128,
          "midi": 38,
          "name": "D2",
          "ticks": 18816,
          "time": 44.1,
          "velocity": 1
        },
        {
          "duration": 0.29999999999999716,
          "durationTicks": 128,
          "midi": 50,
          "name": "D3",
          "ticks": 18816,
          "time": 44.1,
          "velocity": 1
        },
        {
          "duration": 1.2000000000000028,
          "durationTicks": 512,
          "midi": 58,
          "name": "A#3",
          "ticks": 18944,
          "time": 44.4,
          "velocity": 1
        },
        {
          "duration": 1.2000000000000028,
          "durationTicks": 512,
          "midi": 62,
          "name": "D4",
          "ticks": 18944,
          "time": 44.4,
          "velocity": 1
        },
        {
          "duration": 1.2000000000000028,
          "durationTicks": 512,
          "midi": 67,
          "name": "G4",
          "ticks": 18944,
          "time": 44.4,
          "velocity": 1
        },
        {
          "duration": 0.6000000000000014,
          "durationTicks": 256,
          "midi": 43,
          "name": "G2",
          "ticks": 18944,
          "time": 44.4,
          "velocity": 1
        },
        {
          "duration": 0.6000000000000014,
          "durationTicks": 256,
          "midi": 55,
          "name": "G3",
          "ticks": 18944,
          "time": 44.4,
          "velocity": 1
        },
        {
          "duration": 0.6000000000000014,
          "durationTicks": 256,
          "midi": 41,
          "name": "F2",
          "ticks": 19200,
          "time": 45,
          "velocity": 1
        },
        {
          "duration": 0.6000000000000014,
          "durationTicks": 256,
          "midi": 53,
          "name": "F3",
          "ticks": 19200,
          "time": 45,
          "velocity": 1
        },
        {
          "duration": 0.6000000000000014,
          "durationTicks": 256,
          "midi": 70,
          "name": "A#4",
          "ticks": 19456,
          "time": 45.6,
          "velocity": 1
        },
        {
          "duration": 0.6000000000000014,
          "durationTicks": 256,
          "midi": 58,
          "name": "A#3",
          "ticks": 19456,
          "time": 45.6,
          "velocity": 1
        },
        {
          "duration": 0.6000000000000014,
          "durationTicks": 256,
          "midi": 67,
          "name": "G4",
          "ticks": 19456,
          "time": 45.6,
          "velocity": 1
        },
        {
          "duration": 0.6000000000000014,
          "durationTicks": 256,
          "midi": 39,
          "name": "D#2",
          "ticks": 19456,
          "time": 45.6,
          "velocity": 1
        },
        {
          "duration": 0.6000000000000014,
          "durationTicks": 256,
          "midi": 51,
          "name": "D#3",
          "ticks": 19456,
          "time": 45.6,
          "velocity": 1
        },
        {
          "duration": 0.44999999999999574,
          "durationTicks": 192,
          "midi": 58,
          "name": "A#3",
          "ticks": 19712,
          "time": 46.2,
          "velocity": 1
        },
        {
          "duration": 0.44999999999999574,
          "durationTicks": 192,
          "midi": 65,
          "name": "F4",
          "ticks": 19712,
          "time": 46.2,
          "velocity": 1
        },
        {
          "duration": 0.44999999999999574,
          "durationTicks": 192,
          "midi": 69,
          "name": "A4",
          "ticks": 19712,
          "time": 46.2,
          "velocity": 1
        },
        {
          "duration": 0.5999999999999943,
          "durationTicks": 256,
          "midi": 36,
          "name": "C2",
          "ticks": 19712,
          "time": 46.2,
          "velocity": 1
        },
        {
          "duration": 0.5999999999999943,
          "durationTicks": 256,
          "midi": 48,
          "name": "C3",
          "ticks": 19712,
          "time": 46.2,
          "velocity": 1
        },
        {
          "duration": 0.14999999999999858,
          "durationTicks": 64,
          "midi": 63,
          "name": "D#4",
          "ticks": 19904,
          "time": 46.65,
          "velocity": 1
        },
        {
          "duration": 0.14999999999999858,
          "durationTicks": 64,
          "midi": 67,
          "name": "G4",
          "ticks": 19904,
          "time": 46.65,
          "velocity": 1
        },
        {
          "duration": 0.6000000000000014,
          "durationTicks": 256,
          "midi": 53,
          "name": "F3",
          "ticks": 19968,
          "time": 46.8,
          "velocity": 1
        },
        {
          "duration": 0.6000000000000014,
          "durationTicks": 256,
          "midi": 58,
          "name": "A#3",
          "ticks": 19968,
          "time": 46.8,
          "velocity": 1
        },
        {
          "duration": 0.6000000000000014,
          "durationTicks": 256,
          "midi": 65,
          "name": "F4",
          "ticks": 19968,
          "time": 46.8,
          "velocity": 1
        },
        {
          "duration": 0.6000000000000014,
          "durationTicks": 256,
          "midi": 38,
          "name": "D2",
          "ticks": 19968,
          "time": 46.8,
          "velocity": 1
        },
        {
          "duration": 0.6000000000000014,
          "durationTicks": 256,
          "midi": 50,
          "name": "D3",
          "ticks": 19968,
          "time": 46.8,
          "velocity": 1
        },
        {
          "duration": 0.45000000000000284,
          "durationTicks": 192,
          "midi": 58,
          "name": "A#3",
          "ticks": 20224,
          "time": 47.4,
          "velocity": 1
        },
        {
          "duration": 0.6000000000000014,
          "durationTicks": 256,
          "midi": 53,
          "name": "F3",
          "ticks": 20224,
          "time": 47.4,
          "velocity": 1
        },
        {
          "duration": 0.6000000000000014,
          "durationTicks": 256,
          "midi": 38,
          "name": "D2",
          "ticks": 20224,
          "time": 47.4,
          "velocity": 1
        },
        {
          "duration": 0.6000000000000014,
          "durationTicks": 256,
          "midi": 50,
          "name": "D3",
          "ticks": 20224,
          "time": 47.4,
          "velocity": 1
        },
        {
          "duration": 0.14999999999999858,
          "durationTicks": 64,
          "midi": 58,
          "name": "A#3",
          "ticks": 20416,
          "time": 47.85,
          "velocity": 1
        },
        {
          "duration": 0.6000000000000014,
          "durationTicks": 256,
          "midi": 58,
          "name": "A#3",
          "ticks": 20480,
          "time": 48,
          "velocity": 1
        },
        {
          "duration": 0.6000000000000014,
          "durationTicks": 256,
          "midi": 64,
          "name": "E4",
          "ticks": 20480,
          "time": 48,
          "velocity": 1
        },
        {
          "duration": 0.6000000000000014,
          "durationTicks": 256,
          "midi": 70,
          "name": "A#4",
          "ticks": 20480,
          "time": 48,
          "velocity": 1
        },
        {
          "duration": 0.6000000000000014,
          "durationTicks": 256,
          "midi": 36,
          "name": "C2",
          "ticks": 20480,
          "time": 48,
          "velocity": 1
        },
        {
          "duration": 0.6000000000000014,
          "durationTicks": 256,
          "midi": 48,
          "name": "C3",
          "ticks": 20480,
          "time": 48,
          "velocity": 1
        },
        {
          "duration": 0.44999999999999574,
          "durationTicks": 192,
          "midi": 58,
          "name": "A#3",
          "ticks": 20736,
          "time": 48.6,
          "velocity": 1
        },
        {
          "duration": 0.44999999999999574,
          "durationTicks": 192,
          "midi": 62,
          "name": "D4",
          "ticks": 20736,
          "time": 48.6,
          "velocity": 1
        },
        {
          "duration": 0.44999999999999574,
          "durationTicks": 192,
          "midi": 69,
          "name": "A4",
          "ticks": 20736,
          "time": 48.6,
          "velocity": 1
        },
        {
          "duration": 0.6000000000000014,
          "durationTicks": 256,
          "midi": 36,
          "name": "C2",
          "ticks": 20736,
          "time": 48.6,
          "velocity": 1
        },
        {
          "duration": 0.6000000000000014,
          "durationTicks": 256,
          "midi": 48,
          "name": "C3",
          "ticks": 20736,
          "time": 48.6,
          "velocity": 1
        },
        {
          "duration": 0.15000000000000568,
          "durationTicks": 64,
          "midi": 58,
          "name": "A#3",
          "ticks": 20928,
          "time": 49.05,
          "velocity": 1
        },
        {
          "duration": 0.15000000000000568,
          "durationTicks": 64,
          "midi": 64,
          "name": "E4",
          "ticks": 20928,
          "time": 49.05,
          "velocity": 1
        },
        {
          "duration": 0.15000000000000568,
          "durationTicks": 64,
          "midi": 67,
          "name": "G4",
          "ticks": 20928,
          "time": 49.05,
          "velocity": 1
        },
        {
          "duration": 0.8999999999999986,
          "durationTicks": 384,
          "midi": 65,
          "name": "F4",
          "ticks": 20992,
          "time": 49.2,
          "velocity": 1
        },
        {
          "duration": 0.5999999999999943,
          "durationTicks": 256,
          "midi": 57,
          "name": "A3",
          "ticks": 20992,
          "time": 49.2,
          "velocity": 1
        },
        {
          "duration": 0.5999999999999943,
          "durationTicks": 256,
          "midi": 41,
          "name": "F2",
          "ticks": 20992,
          "time": 49.2,
          "velocity": 1
        },
        {
          "duration": 0.5999999999999943,
          "durationTicks": 256,
          "midi": 53,
          "name": "F3",
          "ticks": 20992,
          "time": 49.2,
          "velocity": 1
        },
        {
          "duration": 0.6000000000000014,
          "durationTicks": 256,
          "midi": 57,
          "name": "A3",
          "ticks": 21248,
          "time": 49.8,
          "velocity": 1
        },
        {
          "duration": 0.6000000000000014,
          "durationTicks": 256,
          "midi": 63,
          "name": "D#4",
          "ticks": 21248,
          "time": 49.8,
          "velocity": 1
        },
        {
          "duration": 0.6000000000000014,
          "durationTicks": 256,
          "midi": 29,
          "name": "F1",
          "ticks": 21248,
          "time": 49.8,
          "velocity": 1
        },
        {
          "duration": 0.6000000000000014,
          "durationTicks": 256,
          "midi": 41,
          "name": "F2",
          "ticks": 21248,
          "time": 49.8,
          "velocity": 1
        },
        {
          "duration": 0.29999999999999716,
          "durationTicks": 128,
          "midi": 65,
          "name": "F4",
          "ticks": 21376,
          "time": 50.1,
          "velocity": 1
        },
        {
          "duration": 0.6000000000000014,
          "durationTicks": 256,
          "midi": 58,
          "name": "A#3",
          "ticks": 21504,
          "time": 50.4,
          "velocity": 1
        },
        {
          "duration": 0.6000000000000014,
          "durationTicks": 256,
          "midi": 62,
          "name": "D4",
          "ticks": 21504,
          "time": 50.4,
          "velocity": 1
        },
        {
          "duration": 0.6000000000000014,
          "durationTicks": 256,
          "midi": 65,
          "name": "F4",
          "ticks": 21504,
          "time": 50.4,
          "velocity": 1
        },
        {
          "duration": 0.6000000000000014,
          "durationTicks": 256,
          "midi": 70,
          "name": "A#4",
          "ticks": 21504,
          "time": 50.4,
          "velocity": 1
        },
        {
          "duration": 0.6000000000000014,
          "durationTicks": 256,
          "midi": 34,
          "name": "A#1",
          "ticks": 21504,
          "time": 50.4,
          "velocity": 1
        },
        {
          "duration": 0.6000000000000014,
          "durationTicks": 256,
          "midi": 46,
          "name": "A#2",
          "ticks": 21504,
          "time": 50.4,
          "velocity": 1
        },
        {
          "duration": 0.6000000000000014,
          "durationTicks": 256,
          "midi": 58,
          "name": "A#3",
          "ticks": 21760,
          "time": 51,
          "velocity": 1
        },
        {
          "duration": 0.6000000000000014,
          "durationTicks": 256,
          "midi": 62,
          "name": "D4",
          "ticks": 21760,
          "time": 51,
          "velocity": 1
        },
        {
          "duration": 0.45000000000000284,
          "durationTicks": 192,
          "midi": 65,
          "name": "F4",
          "ticks": 21760,
          "time": 51,
          "velocity": 1
        },
        {
          "duration": 0.6000000000000014,
          "durationTicks": 256,
          "midi": 34,
          "name": "A#1",
          "ticks": 21760,
          "time": 51,
          "velocity": 1
        },
        {
          "duration": 0.6000000000000014,
          "durationTicks": 256,
          "midi": 46,
          "name": "A#2",
          "ticks": 21760,
          "time": 51,
          "velocity": 1
        },
        {
          "duration": 0.14999999999999858,
          "durationTicks": 64,
          "midi": 67,
          "name": "G4",
          "ticks": 21952,
          "time": 51.45,
          "velocity": 1
        },
        {
          "duration": 0.6000000000000014,
          "durationTicks": 256,
          "midi": 57,
          "name": "A3",
          "ticks": 22016,
          "time": 51.6,
          "velocity": 1
        },
        {
          "duration": 0.6000000000000014,
          "durationTicks": 256,
          "midi": 62,
          "name": "D4",
          "ticks": 22016,
          "time": 51.6,
          "velocity": 1
        },
        {
          "duration": 0.6000000000000014,
          "durationTicks": 256,
          "midi": 65,
          "name": "F4",
          "ticks": 22016,
          "time": 51.6,
          "velocity": 1
        },
        {
          "duration": 0.6000000000000014,
          "durationTicks": 256,
          "midi": 69,
          "name": "A4",
          "ticks": 22016,
          "time": 51.6,
          "velocity": 1
        },
        {
          "duration": 0.6000000000000014,
          "durationTicks": 256,
          "midi": 38,
          "name": "D2",
          "ticks": 22016,
          "time": 51.6,
          "velocity": 1
        },
        {
          "duration": 0.6000000000000014,
          "durationTicks": 256,
          "midi": 50,
          "name": "D3",
          "ticks": 22016,
          "time": 51.6,
          "velocity": 1
        },
        {
          "duration": 0.29999999999999716,
          "durationTicks": 128,
          "midi": 62,
          "name": "D4",
          "ticks": 22272,
          "time": 52.2,
          "velocity": 1
        },
        {
          "duration": 0.5999999999999943,
          "durationTicks": 256,
          "midi": 53,
          "name": "F3",
          "ticks": 22272,
          "time": 52.2,
          "velocity": 1
        },
        {
          "duration": 0.5999999999999943,
          "durationTicks": 256,
          "midi": 57,
          "name": "A3",
          "ticks": 22272,
          "time": 52.2,
          "velocity": 1
        },
        {
          "duration": 0.5999999999999943,
          "durationTicks": 256,
          "midi": 38,
          "name": "D2",
          "ticks": 22272,
          "time": 52.2,
          "velocity": 1
        },
        {
          "duration": 0.5999999999999943,
          "durationTicks": 256,
          "midi": 50,
          "name": "D3",
          "ticks": 22272,
          "time": 52.2,
          "velocity": 1
        },
        {
          "duration": 0.29999999999999716,
          "durationTicks": 128,
          "midi": 62,
          "name": "D4",
          "ticks": 22400,
          "time": 52.5,
          "velocity": 1
        },
        {
          "duration": 0.6000000000000014,
          "durationTicks": 256,
          "midi": 55,
          "name": "G3",
          "ticks": 22528,
          "time": 52.8,
          "velocity": 1
        },
        {
          "duration": 0.6000000000000014,
          "durationTicks": 256,
          "midi": 58,
          "name": "A#3",
          "ticks": 22528,
          "time": 52.8,
          "velocity": 1
        },
        {
          "duration": 0.6000000000000014,
          "durationTicks": 256,
          "midi": 67,
          "name": "G4",
          "ticks": 22528,
          "time": 52.8,
          "velocity": 1
        },
        {
          "duration": 0.6000000000000014,
          "durationTicks": 256,
          "midi": 39,
          "name": "D#2",
          "ticks": 22528,
          "time": 52.8,
          "velocity": 1
        },
        {
          "duration": 0.6000000000000014,
          "durationTicks": 256,
          "midi": 51,
          "name": "D#3",
          "ticks": 22528,
          "time": 52.8,
          "velocity": 1
        },
        {
          "duration": 0.45000000000000284,
          "durationTicks": 192,
          "midi": 55,
          "name": "G3",
          "ticks": 22784,
          "time": 53.4,
          "velocity": 1
        },
        {
          "duration": 0.45000000000000284,
          "durationTicks": 192,
          "midi": 58,
          "name": "A#3",
          "ticks": 22784,
          "time": 53.4,
          "velocity": 1
        },
        {
          "duration": 0.45000000000000284,
          "durationTicks": 192,
          "midi": 65,
          "name": "F4",
          "ticks": 22784,
          "time": 53.4,
          "velocity": 1
        },
        {
          "duration": 0.6000000000000014,
          "durationTicks": 256,
          "midi": 39,
          "name": "D#2",
          "ticks": 22784,
          "time": 53.4,
          "velocity": 1
        },
        {
          "duration": 0.6000000000000014,
          "durationTicks": 256,
          "midi": 51,
          "name": "D#3",
          "ticks": 22784,
          "time": 53.4,
          "velocity": 1
        },
        {
          "duration": 0.14999999999999858,
          "durationTicks": 64,
          "midi": 63,
          "name": "D#4",
          "ticks": 22976,
          "time": 53.85,
          "velocity": 1
        },
        {
          "duration": 0.6000000000000014,
          "durationTicks": 256,
          "midi": 53,
          "name": "F3",
          "ticks": 23040,
          "time": 54,
          "velocity": 1
        },
        {
          "duration": 0.6000000000000014,
          "durationTicks": 256,
          "midi": 58,
          "name": "A#3",
          "ticks": 23040,
          "time": 54,
          "velocity": 1
        },
        {
          "duration": 0.6000000000000014,
          "durationTicks": 256,
          "midi": 65,
          "name": "F4",
          "ticks": 23040,
          "time": 54,
          "velocity": 1
        },
        {
          "duration": 0.6000000000000014,
          "durationTicks": 256,
          "midi": 38,
          "name": "D2",
          "ticks": 23040,
          "time": 54,
          "velocity": 1
        },
        {
          "duration": 0.6000000000000014,
          "durationTicks": 256,
          "midi": 50,
          "name": "D3",
          "ticks": 23040,
          "time": 54,
          "velocity": 1
        },
        {
          "duration": 0.29999999999999716,
          "durationTicks": 128,
          "midi": 58,
          "name": "A#3",
          "ticks": 23296,
          "time": 54.6,
          "velocity": 1
        },
        {
          "duration": 0.6000000000000014,
          "durationTicks": 256,
          "midi": 53,
          "name": "F3",
          "ticks": 23296,
          "time": 54.6,
          "velocity": 1
        },
        {
          "duration": 0.6000000000000014,
          "durationTicks": 256,
          "midi": 38,
          "name": "D2",
          "ticks": 23296,
          "time": 54.6,
          "velocity": 1
        },
        {
          "duration": 0.6000000000000014,
          "durationTicks": 256,
          "midi": 50,
          "name": "D3",
          "ticks": 23296,
          "time": 54.6,
          "velocity": 1
        },
        {
          "duration": 0.30000000000000426,
          "durationTicks": 128,
          "midi": 58,
          "name": "A#3",
          "ticks": 23424,
          "time": 54.9,
          "velocity": 1
        },
        {
          "duration": 0.5999999999999943,
          "durationTicks": 256,
          "midi": 51,
          "name": "D#3",
          "ticks": 23552,
          "time": 55.2,
          "velocity": 1
        },
        {
          "duration": 0.5999999999999943,
          "durationTicks": 256,
          "midi": 55,
          "name": "G3",
          "ticks": 23552,
          "time": 55.2,
          "velocity": 1
        },
        {
          "duration": 0.5999999999999943,
          "durationTicks": 256,
          "midi": 60,
          "name": "C4",
          "ticks": 23552,
          "time": 55.2,
          "velocity": 1
        },
        {
          "duration": 0.5999999999999943,
          "durationTicks": 256,
          "midi": 36,
          "name": "C2",
          "ticks": 23552,
          "time": 55.2,
          "velocity": 1
        },
        {
          "duration": 0.5999999999999943,
          "durationTicks": 256,
          "midi": 48,
          "name": "C3",
          "ticks": 23552,
          "time": 55.2,
          "velocity": 1
        },
        {
          "duration": 0.30000000000000426,
          "durationTicks": 128,
          "midi": 51,
          "name": "D#3",
          "ticks": 23808,
          "time": 55.8,
          "velocity": 1
        },
        {
          "duration": 0.30000000000000426,
          "durationTicks": 128,
          "midi": 55,
          "name": "G3",
          "ticks": 23808,
          "time": 55.8,
          "velocity": 1
        },
        {
          "duration": 0.30000000000000426,
          "durationTicks": 128,
          "midi": 60,
          "name": "C4",
          "ticks": 23808,
          "time": 55.8,
          "velocity": 1
        },
        {
          "duration": 0.30000000000000426,
          "durationTicks": 128,
          "midi": 36,
          "name": "C2",
          "ticks": 23808,
          "time": 55.8,
          "velocity": 1
        },
        {
          "duration": 0.30000000000000426,
          "durationTicks": 128,
          "midi": 48,
          "name": "C3",
          "ticks": 23808,
          "time": 55.8,
          "velocity": 1
        },
        {
          "duration": 0.29999999999999716,
          "durationTicks": 128,
          "midi": 62,
          "name": "D4",
          "ticks": 23936,
          "time": 56.1,
          "velocity": 0.7874015748031497
        },
        {
          "duration": 0.29999999999999716,
          "durationTicks": 128,
          "midi": 35,
          "name": "B1",
          "ticks": 23936,
          "time": 56.1,
          "velocity": 1
        },
        {
          "duration": 0.29999999999999716,
          "durationTicks": 128,
          "midi": 47,
          "name": "B2",
          "ticks": 23936,
          "time": 56.1,
          "velocity": 1
        },
        {
          "duration": 0.6000000000000014,
          "durationTicks": 256,
          "midi": 55,
          "name": "G3",
          "ticks": 24064,
          "time": 56.4,
          "velocity": 1
        },
        {
          "duration": 0.6000000000000014,
          "durationTicks": 256,
          "midi": 60,
          "name": "C4",
          "ticks": 24064,
          "time": 56.4,
          "velocity": 1
        },
        {
          "duration": 0.6000000000000014,
          "durationTicks": 256,
          "midi": 63,
          "name": "D#4",
          "ticks": 24064,
          "time": 56.4,
          "velocity": 1
        },
        {
          "duration": 0.6000000000000014,
          "durationTicks": 256,
          "midi": 34,
          "name": "A#1",
          "ticks": 24064,
          "time": 56.4,
          "velocity": 1
        },
        {
          "duration": 0.6000000000000014,
          "durationTicks": 256,
          "midi": 46,
          "name": "A#2",
          "ticks": 24064,
          "time": 56.4,
          "velocity": 1
        },
        {
          "duration": 0.29999999999999716,
          "durationTicks": 128,
          "midi": 55,
          "name": "G3",
          "ticks": 24320,
          "time": 57,
          "velocity": 1
        },
        {
          "duration": 0.29999999999999716,
          "durationTicks": 128,
          "midi": 60,
          "name": "C4",
          "ticks": 24320,
          "time": 57,
          "velocity": 1
        },
        {
          "duration": 0.29999999999999716,
          "durationTicks": 128,
          "midi": 63,
          "name": "D#4",
          "ticks": 24320,
          "time": 57,
          "velocity": 1
        },
        {
          "duration": 0.6000000000000014,
          "durationTicks": 256,
          "midi": 34,
          "name": "A#1",
          "ticks": 24320,
          "time": 57,
          "velocity": 1
        },
        {
          "duration": 0.6000000000000014,
          "durationTicks": 256,
          "midi": 46,
          "name": "A#2",
          "ticks": 24320,
          "time": 57,
          "velocity": 1
        },
        {
          "duration": 0.30000000000000426,
          "durationTicks": 128,
          "midi": 55,
          "name": "G3",
          "ticks": 24448,
          "time": 57.3,
          "velocity": 1
        },
        {
          "duration": 0.30000000000000426,
          "durationTicks": 128,
          "midi": 62,
          "name": "D4",
          "ticks": 24448,
          "time": 57.3,
          "velocity": 1
        },
        {
          "duration": 0.30000000000000426,
          "durationTicks": 128,
          "midi": 65,
          "name": "F4",
          "ticks": 24448,
          "time": 57.3,
          "velocity": 1
        },
        {
          "duration": 0.6000000000000014,
          "durationTicks": 256,
          "midi": 55,
          "name": "G3",
          "ticks": 24576,
          "time": 57.6,
          "velocity": 1
        },
        {
          "duration": 0.6000000000000014,
          "durationTicks": 256,
          "midi": 63,
          "name": "D#4",
          "ticks": 24576,
          "time": 57.6,
          "velocity": 1
        },
        {
          "duration": 0.6000000000000014,
          "durationTicks": 256,
          "midi": 67,
          "name": "G4",
          "ticks": 24576,
          "time": 57.6,
          "velocity": 1
        },
        {
          "duration": 0.6000000000000014,
          "durationTicks": 256,
          "midi": 34,
          "name": "A#1",
          "ticks": 24576,
          "time": 57.6,
          "velocity": 1
        },
        {
          "duration": 0.6000000000000014,
          "durationTicks": 256,
          "midi": 46,
          "name": "A#2",
          "ticks": 24576,
          "time": 57.6,
          "velocity": 1
        },
        {
          "duration": 0.29999999999999716,
          "durationTicks": 128,
          "midi": 57,
          "name": "A3",
          "ticks": 24832,
          "time": 58.2,
          "velocity": 1
        },
        {
          "duration": 0.29999999999999716,
          "durationTicks": 128,
          "midi": 65,
          "name": "F4",
          "ticks": 24832,
          "time": 58.2,
          "velocity": 1
        },
        {
          "duration": 0.29999999999999716,
          "durationTicks": 128,
          "midi": 69,
          "name": "A4",
          "ticks": 24832,
          "time": 58.2,
          "velocity": 1
        },
        {
          "duration": 0.29999999999999716,
          "durationTicks": 128,
          "midi": 33,
          "name": "A1",
          "ticks": 24832,
          "time": 58.2,
          "velocity": 1
        },
        {
          "duration": 0.29999999999999716,
          "durationTicks": 128,
          "midi": 45,
          "name": "A2",
          "ticks": 24832,
          "time": 58.2,
          "velocity": 1
        },
        {
          "duration": 0.29999999999999716,
          "durationTicks": 128,
          "midi": 58,
          "name": "A#3",
          "ticks": 24960,
          "time": 58.5,
          "velocity": 1
        },
        {
          "duration": 0.29999999999999716,
          "durationTicks": 128,
          "midi": 65,
          "name": "F4",
          "ticks": 24960,
          "time": 58.5,
          "velocity": 1
        },
        {
          "duration": 0.29999999999999716,
          "durationTicks": 128,
          "midi": 67,
          "name": "G4",
          "ticks": 24960,
          "time": 58.5,
          "velocity": 1
        },
        {
          "duration": 0.29999999999999716,
          "durationTicks": 128,
          "midi": 70,
          "name": "A#4",
          "ticks": 24960,
          "time": 58.5,
          "velocity": 1
        },
        {
          "duration": 0.29999999999999716,
          "durationTicks": 128,
          "midi": 31,
          "name": "G1",
          "ticks": 24960,
          "time": 58.5,
          "velocity": 1
        },
        {
          "duration": 0.29999999999999716,
          "durationTicks": 128,
          "midi": 43,
          "name": "G2",
          "ticks": 24960,
          "time": 58.5,
          "velocity": 1
        },
        {
          "duration": 0.8999999999999986,
          "durationTicks": 384,
          "midi": 72,
          "name": "C5",
          "ticks": 25088,
          "time": 58.8,
          "velocity": 1
        },
        {
          "duration": 1.2000000000000028,
          "durationTicks": 512,
          "midi": 60,
          "name": "C4",
          "ticks": 25088,
          "time": 58.8,
          "velocity": 1
        },
        {
          "duration": 1.2000000000000028,
          "durationTicks": 512,
          "midi": 65,
          "name": "F4",
          "ticks": 25088,
          "time": 58.8,
          "velocity": 1
        },
        {
          "duration": 1.2000000000000028,
          "durationTicks": 512,
          "midi": 69,
          "name": "A4",
          "ticks": 25088,
          "time": 58.8,
          "velocity": 1
        },
        {
          "duration": 0.30000000000000426,
          "durationTicks": 128,
          "midi": 29,
          "name": "F1",
          "ticks": 25088,
          "time": 58.8,
          "velocity": 1
        },
        {
          "duration": 0.30000000000000426,
          "durationTicks": 128,
          "midi": 41,
          "name": "F2",
          "ticks": 25088,
          "time": 58.8,
          "velocity": 1
        },
        {
          "duration": 0.29999999999999716,
          "durationTicks": 128,
          "midi": 39,
          "name": "D#2",
          "ticks": 25216,
          "time": 59.1,
          "velocity": 1
        },
        {
          "duration": 0.29999999999999716,
          "durationTicks": 128,
          "midi": 51,
          "name": "D#3",
          "ticks": 25216,
          "time": 59.1,
          "velocity": 1
        },
        {
          "duration": 0.29999999999999716,
          "durationTicks": 128,
          "midi": 38,
          "name": "D2",
          "ticks": 25344,
          "time": 59.4,
          "velocity": 1
        },
        {
          "duration": 0.29999999999999716,
          "durationTicks": 128,
          "midi": 50,
          "name": "D3",
          "ticks": 25344,
          "time": 59.4,
          "velocity": 1
        },
        {
          "duration": 0.30000000000000426,
          "durationTicks": 128,
          "midi": 36,
          "name": "C2",
          "ticks": 25472,
          "time": 59.699999999999996,
          "velocity": 1
        },
        {
          "duration": 0.30000000000000426,
          "durationTicks": 128,
          "midi": 48,
          "name": "C3",
          "ticks": 25472,
          "time": 59.699999999999996,
          "velocity": 1
        },
        {
          "duration": 0.6000000000000014,
          "durationTicks": 256,
          "midi": 62,
          "name": "D4",
          "ticks": 25600,
          "time": 60,
          "velocity": 1
        },
        {
          "duration": 0.6000000000000014,
          "durationTicks": 256,
          "midi": 65,
          "name": "F4",
          "ticks": 25600,
          "time": 60,
          "velocity": 1
        },
        {
          "duration": 0.6000000000000014,
          "durationTicks": 256,
          "midi": 70,
          "name": "A#4",
          "ticks": 25600,
          "time": 60,
          "velocity": 1
        },
        {
          "duration": 0.6000000000000014,
          "durationTicks": 256,
          "midi": 74,
          "name": "D5",
          "ticks": 25600,
          "time": 60,
          "velocity": 1
        },
        {
          "duration": 0.6000000000000014,
          "durationTicks": 256,
          "midi": 46,
          "name": "A#2",
          "ticks": 25600,
          "time": 60,
          "velocity": 1
        },
        {
          "duration": 0.6000000000000014,
          "durationTicks": 256,
          "midi": 34,
          "name": "A#1",
          "ticks": 25600,
          "time": 60,
          "velocity": 1
        },
        {
          "duration": 0.44999999999999574,
          "durationTicks": 192,
          "midi": 60,
          "name": "C4",
          "ticks": 25856,
          "time": 60.6,
          "velocity": 1
        },
        {
          "duration": 0.5999999999999943,
          "durationTicks": 256,
          "midi": 65,
          "name": "F4",
          "ticks": 25856,
          "time": 60.6,
          "velocity": 1
        },
        {
          "duration": 0.44999999999999574,
          "durationTicks": 192,
          "midi": 72,
          "name": "C5",
          "ticks": 25856,
          "time": 60.6,
          "velocity": 1
        },
        {
          "duration": 0.5999999999999943,
          "durationTicks": 256,
          "midi": 50,
          "name": "D3",
          "ticks": 25856,
          "time": 60.6,
          "velocity": 1
        },
        {
          "duration": 0.5999999999999943,
          "durationTicks": 256,
          "midi": 38,
          "name": "D2",
          "ticks": 25856,
          "time": 60.6,
          "velocity": 1
        },
        {
          "duration": 0.14999999999999858,
          "durationTicks": 64,
          "midi": 58,
          "name": "A#3",
          "ticks": 26048,
          "time": 61.05,
          "velocity": 1
        },
        {
          "duration": 0.14999999999999858,
          "durationTicks": 64,
          "midi": 67,
          "name": "G4",
          "ticks": 26048,
          "time": 61.05,
          "velocity": 1
        },
        {
          "duration": 0.14999999999999858,
          "durationTicks": 64,
          "midi": 70,
          "name": "A#4",
          "ticks": 26048,
          "time": 61.05,
          "velocity": 1
        },
        {
          "duration": 0.6000000000000014,
          "durationTicks": 256,
          "midi": 60,
          "name": "C4",
          "ticks": 26112,
          "time": 61.199999999999996,
          "velocity": 1
        },
        {
          "duration": 0.6000000000000014,
          "durationTicks": 256,
          "midi": 65,
          "name": "F4",
          "ticks": 26112,
          "time": 61.199999999999996,
          "velocity": 1
        },
        {
          "duration": 0.6000000000000014,
          "durationTicks": 256,
          "midi": 69,
          "name": "A4",
          "ticks": 26112,
          "time": 61.199999999999996,
          "velocity": 1
        },
        {
          "duration": 0.6000000000000014,
          "durationTicks": 256,
          "midi": 72,
          "name": "C5",
          "ticks": 26112,
          "time": 61.199999999999996,
          "velocity": 1
        },
        {
          "duration": 0.6000000000000014,
          "durationTicks": 256,
          "midi": 53,
          "name": "F3",
          "ticks": 26112,
          "time": 61.199999999999996,
          "velocity": 1
        },
        {
          "duration": 0.6000000000000014,
          "durationTicks": 256,
          "midi": 41,
          "name": "F2",
          "ticks": 26112,
          "time": 61.199999999999996,
          "velocity": 1
        },
        {
          "duration": 0.30000000000000426,
          "durationTicks": 128,
          "midi": 69,
          "name": "A4",
          "ticks": 26368,
          "time": 61.8,
          "velocity": 1
        },
        {
          "duration": 0.6000000000000014,
          "durationTicks": 256,
          "midi": 57,
          "name": "A3",
          "ticks": 26368,
          "time": 61.8,
          "velocity": 1
        },
        {
          "duration": 0.6000000000000014,
          "durationTicks": 256,
          "midi": 60,
          "name": "C4",
          "ticks": 26368,
          "time": 61.8,
          "velocity": 1
        },
        {
          "duration": 0.6000000000000014,
          "durationTicks": 256,
          "midi": 45,
          "name": "A2",
          "ticks": 26368,
          "time": 61.8,
          "velocity": 1
        },
        {
          "duration": 0.6000000000000014,
          "durationTicks": 256,
          "midi": 41,
          "name": "F2",
          "ticks": 26368,
          "time": 61.8,
          "velocity": 1
        },
        {
          "duration": 0.29999999999999716,
          "durationTicks": 128,
          "midi": 65,
          "name": "F4",
          "ticks": 26496,
          "time": 62.1,
          "velocity": 1
        },
        {
          "duration": 0.6000000000000014,
          "durationTicks": 256,
          "midi": 58,
          "name": "A#3",
          "ticks": 26624,
          "time": 62.4,
          "velocity": 1
        },
        {
          "duration": 0.6000000000000014,
          "durationTicks": 256,
          "midi": 62,
          "name": "D4",
          "ticks": 26624,
          "time": 62.4,
          "velocity": 1
        },
        {
          "duration": 0.6000000000000014,
          "durationTicks": 256,
          "midi": 67,
          "name": "G4",
          "ticks": 26624,
          "time": 62.4,
          "velocity": 1
        },
        {
          "duration": 0.6000000000000014,
          "durationTicks": 256,
          "midi": 70,
          "name": "A#4",
          "ticks": 26624,
          "time": 62.4,
          "velocity": 1
        },
        {
          "duration": 0.6000000000000014,
          "durationTicks": 256,
          "midi": 43,
          "name": "G2",
          "ticks": 26624,
          "time": 62.4,
          "velocity": 1
        },
        {
          "duration": 0.6000000000000014,
          "durationTicks": 256,
          "midi": 31,
          "name": "G1",
          "ticks": 26624,
          "time": 62.4,
          "velocity": 1
        },
        {
          "duration": 0.44999999999999574,
          "durationTicks": 192,
          "midi": 57,
          "name": "A3",
          "ticks": 26880,
          "time": 63,
          "velocity": 1
        },
        {
          "duration": 0.44999999999999574,
          "durationTicks": 192,
          "midi": 62,
          "name": "D4",
          "ticks": 26880,
          "time": 63,
          "velocity": 1
        },
        {
          "duration": 0.44999999999999574,
          "durationTicks": 192,
          "midi": 69,
          "name": "A4",
          "ticks": 26880,
          "time": 63,
          "velocity": 1
        },
        {
          "duration": 0.6000000000000014,
          "durationTicks": 256,
          "midi": 46,
          "name": "A#2",
          "ticks": 26880,
          "time": 63,
          "velocity": 1
        },
        {
          "duration": 0.6000000000000014,
          "durationTicks": 256,
          "midi": 34,
          "name": "A#1",
          "ticks": 26880,
          "time": 63,
          "velocity": 1
        },
        {
          "duration": 0.15000000000000568,
          "durationTicks": 64,
          "midi": 67,
          "name": "G4",
          "ticks": 27072,
          "time": 63.449999999999996,
          "velocity": 1
        },
        {
          "duration": 0.5999999999999872,
          "durationTicks": 256,
          "midi": 57,
          "name": "A3",
          "ticks": 27136,
          "time": 63.6,
          "velocity": 1
        },
        {
          "duration": 0.5999999999999872,
          "durationTicks": 256,
          "midi": 62,
          "name": "D4",
          "ticks": 27136,
          "time": 63.6,
          "velocity": 1
        },
        {
          "duration": 0.5999999999999872,
          "durationTicks": 256,
          "midi": 65,
          "name": "F4",
          "ticks": 27136,
          "time": 63.6,
          "velocity": 1
        },
        {
          "duration": 0.5999999999999872,
          "durationTicks": 256,
          "midi": 69,
          "name": "A4",
          "ticks": 27136,
          "time": 63.6,
          "velocity": 1
        },
        {
          "duration": 0.5999999999999872,
          "durationTicks": 256,
          "midi": 50,
          "name": "D3",
          "ticks": 27136,
          "time": 63.6,
          "velocity": 1
        },
        {
          "duration": 0.5999999999999872,
          "durationTicks": 256,
          "midi": 38,
          "name": "D2",
          "ticks": 27136,
          "time": 63.6,
          "velocity": 1
        },
        {
          "duration": 0.30000000000001137,
          "durationTicks": 128,
          "midi": 62,
          "name": "D4",
          "ticks": 27392,
          "time": 64.19999999999999,
          "velocity": 1
        },
        {
          "duration": 0.6000000000000085,
          "durationTicks": 256,
          "midi": 53,
          "name": "F3",
          "ticks": 27392,
          "time": 64.19999999999999,
          "velocity": 1
        },
        {
          "duration": 0.6000000000000085,
          "durationTicks": 256,
          "midi": 57,
          "name": "A3",
          "ticks": 27392,
          "time": 64.19999999999999,
          "velocity": 1
        },
        {
          "duration": 0.6000000000000085,
          "durationTicks": 256,
          "midi": 41,
          "name": "F2",
          "ticks": 27392,
          "time": 64.19999999999999,
          "velocity": 1
        },
        {
          "duration": 0.6000000000000085,
          "durationTicks": 256,
          "midi": 38,
          "name": "D2",
          "ticks": 27392,
          "time": 64.19999999999999,
          "velocity": 1
        },
        {
          "duration": 0.29999999999999716,
          "durationTicks": 128,
          "midi": 62,
          "name": "D4",
          "ticks": 27520,
          "time": 64.5,
          "velocity": 1
        },
        {
          "duration": 0.5999999999999943,
          "durationTicks": 256,
          "midi": 55,
          "name": "G3",
          "ticks": 27648,
          "time": 64.8,
          "velocity": 1
        },
        {
          "duration": 0.5999999999999943,
          "durationTicks": 256,
          "midi": 58,
          "name": "A#3",
          "ticks": 27648,
          "time": 64.8,
          "velocity": 1
        },
        {
          "duration": 0.5999999999999943,
          "durationTicks": 256,
          "midi": 67,
          "name": "G4",
          "ticks": 27648,
          "time": 64.8,
          "velocity": 1
        },
        {
          "duration": 0.5999999999999943,
          "durationTicks": 256,
          "midi": 39,
          "name": "D#2",
          "ticks": 27648,
          "time": 64.8,
          "velocity": 1
        },
        {
          "duration": 0.5999999999999943,
          "durationTicks": 256,
          "midi": 51,
          "name": "D#3",
          "ticks": 27648,
          "time": 64.8,
          "velocity": 1
        },
        {
          "duration": 0.6000000000000085,
          "durationTicks": 256,
          "midi": 55,
          "name": "G3",
          "ticks": 27904,
          "time": 65.39999999999999,
          "velocity": 1
        },
        {
          "duration": 0.6000000000000085,
          "durationTicks": 256,
          "midi": 58,
          "name": "A#3",
          "ticks": 27904,
          "time": 65.39999999999999,
          "velocity": 1
        },
        {
          "duration": 0.45000000000000284,
          "durationTicks": 192,
          "midi": 65,
          "name": "F4",
          "ticks": 27904,
          "time": 65.39999999999999,
          "velocity": 1
        },
        {
          "duration": 0.6000000000000085,
          "durationTicks": 256,
          "midi": 36,
          "name": "C2",
          "ticks": 27904,
          "time": 65.39999999999999,
          "velocity": 1
        },
        {
          "duration": 0.6000000000000085,
          "durationTicks": 256,
          "midi": 48,
          "name": "C3",
          "ticks": 27904,
          "time": 65.39999999999999,
          "velocity": 1
        },
        {
          "duration": 0.15000000000000568,
          "durationTicks": 64,
          "midi": 63,
          "name": "D#4",
          "ticks": 28096,
          "time": 65.85,
          "velocity": 1
        },
        {
          "duration": 0.5999999999999943,
          "durationTicks": 256,
          "midi": 53,
          "name": "F3",
          "ticks": 28160,
          "time": 66,
          "velocity": 1
        },
        {
          "duration": 0.5999999999999943,
          "durationTicks": 256,
          "midi": 58,
          "name": "A#3",
          "ticks": 28160,
          "time": 66,
          "velocity": 1
        },
        {
          "duration": 0.5999999999999943,
          "durationTicks": 256,
          "midi": 65,
          "name": "F4",
          "ticks": 28160,
          "time": 66,
          "velocity": 1
        },
        {
          "duration": 0.5999999999999943,
          "durationTicks": 256,
          "midi": 38,
          "name": "D2",
          "ticks": 28160,
          "time": 66,
          "velocity": 1
        },
        {
          "duration": 0.5999999999999943,
          "durationTicks": 256,
          "midi": 50,
          "name": "D3",
          "ticks": 28160,
          "time": 66,
          "velocity": 1
        },
        {
          "duration": 0.5999999999999943,
          "durationTicks": 256,
          "midi": 53,
          "name": "F3",
          "ticks": 28416,
          "time": 66.6,
          "velocity": 1
        },
        {
          "duration": 0.45000000000000284,
          "durationTicks": 192,
          "midi": 58,
          "name": "A#3",
          "ticks": 28416,
          "time": 66.6,
          "velocity": 1
        },
        {
          "duration": 0.5999999999999943,
          "durationTicks": 256,
          "midi": 38,
          "name": "D2",
          "ticks": 28416,
          "time": 66.6,
          "velocity": 1
        },
        {
          "duration": 0.5999999999999943,
          "durationTicks": 256,
          "midi": 50,
          "name": "D3",
          "ticks": 28416,
          "time": 66.6,
          "velocity": 1
        },
        {
          "duration": 0.14999999999999147,
          "durationTicks": 64,
          "midi": 58,
          "name": "A#3",
          "ticks": 28608,
          "time": 67.05,
          "velocity": 1
        },
        {
          "duration": 0.6000000000000085,
          "durationTicks": 256,
          "midi": 58,
          "name": "A#3",
          "ticks": 28672,
          "time": 67.19999999999999,
          "velocity": 1
        },
        {
          "duration": 0.6000000000000085,
          "durationTicks": 256,
          "midi": 64,
          "name": "E4",
          "ticks": 28672,
          "time": 67.19999999999999,
          "velocity": 1
        },
        {
          "duration": 0.6000000000000085,
          "durationTicks": 256,
          "midi": 70,
          "name": "A#4",
          "ticks": 28672,
          "time": 67.19999999999999,
          "velocity": 1
        },
        {
          "duration": 0.6000000000000085,
          "durationTicks": 256,
          "midi": 36,
          "name": "C2",
          "ticks": 28672,
          "time": 67.19999999999999,
          "velocity": 1
        },
        {
          "duration": 0.6000000000000085,
          "durationTicks": 256,
          "midi": 48,
          "name": "C3",
          "ticks": 28672,
          "time": 67.19999999999999,
          "velocity": 1
        },
        {
          "duration": 0.44999999999998863,
          "durationTicks": 192,
          "midi": 58,
          "name": "A#3",
          "ticks": 28928,
          "time": 67.8,
          "velocity": 1
        },
        {
          "duration": 0.44999999999998863,
          "durationTicks": 192,
          "midi": 62,
          "name": "D4",
          "ticks": 28928,
          "time": 67.8,
          "velocity": 1
        },
        {
          "duration": 0.44999999999998863,
          "durationTicks": 192,
          "midi": 69,
          "name": "A4",
          "ticks": 28928,
          "time": 67.8,
          "velocity": 1
        },
        {
          "duration": 0.5999999999999943,
          "durationTicks": 256,
          "midi": 36,
          "name": "C2",
          "ticks": 28928,
          "time": 67.8,
          "velocity": 1
        },
        {
          "duration": 0.5999999999999943,
          "durationTicks": 256,
          "midi": 48,
          "name": "C3",
          "ticks": 28928,
          "time": 67.8,
          "velocity": 1
        },
        {
          "duration": 0.15000000000000568,
          "durationTicks": 64,
          "midi": 58,
          "name": "A#3",
          "ticks": 29120,
          "time": 68.24999999999999,
          "velocity": 1
        },
        {
          "duration": 0.15000000000000568,
          "durationTicks": 64,
          "midi": 64,
          "name": "E4",
          "ticks": 29120,
          "time": 68.24999999999999,
          "velocity": 1
        },
        {
          "duration": 0.15000000000000568,
          "durationTicks": 64,
          "midi": 67,
          "name": "G4",
          "ticks": 29120,
          "time": 68.24999999999999,
          "velocity": 1
        },
        {
          "duration": 0.29999999999999716,
          "durationTicks": 128,
          "midi": 57,
          "name": "A3",
          "ticks": 29184,
          "time": 68.39999999999999,
          "velocity": 1
        },
        {
          "duration": 0.29999999999999716,
          "durationTicks": 128,
          "midi": 65,
          "name": "F4",
          "ticks": 29184,
          "time": 68.39999999999999,
          "velocity": 1
        },
        {
          "duration": 0.29999999999999716,
          "durationTicks": 128,
          "midi": 41,
          "name": "F2",
          "ticks": 29184,
          "time": 68.39999999999999,
          "velocity": 1
        },
        {
          "duration": 0.29999999999999716,
          "durationTicks": 128,
          "midi": 53,
          "name": "F3",
          "ticks": 29184,
          "time": 68.39999999999999,
          "velocity": 1
        },
        {
          "duration": 0.29999999999999716,
          "durationTicks": 128,
          "midi": 57,
          "name": "A3",
          "ticks": 29312,
          "time": 68.69999999999999,
          "velocity": 1
        },
        {
          "duration": 0.29999999999999716,
          "durationTicks": 128,
          "midi": 69,
          "name": "A4",
          "ticks": 29312,
          "time": 68.69999999999999,
          "velocity": 1
        },
        {
          "duration": 0.29999999999999716,
          "durationTicks": 128,
          "midi": 39,
          "name": "D#2",
          "ticks": 29312,
          "time": 68.69999999999999,
          "velocity": 1
        },
        {
          "duration": 0.29999999999999716,
          "durationTicks": 128,
          "midi": 51,
          "name": "D#3",
          "ticks": 29312,
          "time": 68.69999999999999,
          "velocity": 1
        },
        {
          "duration": 0.30000000000001137,
          "durationTicks": 128,
          "midi": 58,
          "name": "A#3",
          "ticks": 29440,
          "time": 68.99999999999999,
          "velocity": 1
        },
        {
          "duration": 0.30000000000001137,
          "durationTicks": 128,
          "midi": 67,
          "name": "G4",
          "ticks": 29440,
          "time": 68.99999999999999,
          "velocity": 1
        },
        {
          "duration": 0.30000000000001137,
          "durationTicks": 128,
          "midi": 70,
          "name": "A#4",
          "ticks": 29440,
          "time": 68.99999999999999,
          "velocity": 1
        },
        {
          "duration": 0.30000000000001137,
          "durationTicks": 128,
          "midi": 38,
          "name": "D2",
          "ticks": 29440,
          "time": 68.99999999999999,
          "velocity": 1
        },
        {
          "duration": 0.30000000000001137,
          "durationTicks": 128,
          "midi": 50,
          "name": "D3",
          "ticks": 29440,
          "time": 68.99999999999999,
          "velocity": 1
        },
        {
          "duration": 0.29999999999999716,
          "durationTicks": 128,
          "midi": 60,
          "name": "C4",
          "ticks": 29568,
          "time": 69.3,
          "velocity": 1
        },
        {
          "duration": 0.29999999999999716,
          "durationTicks": 128,
          "midi": 69,
          "name": "A4",
          "ticks": 29568,
          "time": 69.3,
          "velocity": 1
        },
        {
          "duration": 0.29999999999999716,
          "durationTicks": 128,
          "midi": 72,
          "name": "C5",
          "ticks": 29568,
          "time": 69.3,
          "velocity": 1
        },
        {
          "duration": 0.29999999999999716,
          "durationTicks": 128,
          "midi": 36,
          "name": "C2",
          "ticks": 29568,
          "time": 69.3,
          "velocity": 1
        },
        {
          "duration": 0.29999999999999716,
          "durationTicks": 128,
          "midi": 48,
          "name": "C3",
          "ticks": 29568,
          "time": 69.3,
          "velocity": 1
        },
        {
          "duration": 1.2000000000000028,
          "durationTicks": 512,
          "midi": 62,
          "name": "D4",
          "ticks": 29696,
          "time": 69.6,
          "velocity": 1
        },
        {
          "duration": 1.2000000000000028,
          "durationTicks": 512,
          "midi": 65,
          "name": "F4",
          "ticks": 29696,
          "time": 69.6,
          "velocity": 1
        },
        {
          "duration": 1.2000000000000028,
          "durationTicks": 512,
          "midi": 70,
          "name": "A#4",
          "ticks": 29696,
          "time": 69.6,
          "velocity": 1
        },
        {
          "duration": 1.2000000000000028,
          "durationTicks": 512,
          "midi": 74,
          "name": "D5",
          "ticks": 29696,
          "time": 69.6,
          "velocity": 1
        },
        {
          "duration": 0.29999999999999716,
          "durationTicks": 128,
          "midi": 34,
          "name": "A#1",
          "ticks": 29696,
          "time": 69.6,
          "velocity": 1
        },
        {
          "duration": 0.29999999999999716,
          "durationTicks": 128,
          "midi": 46,
          "name": "A#2",
          "ticks": 29696,
          "time": 69.6,
          "velocity": 1
        },
        {
          "duration": 0.29999999999999716,
          "durationTicks": 128,
          "midi": 33,
          "name": "A1",
          "ticks": 29824,
          "time": 69.89999999999999,
          "velocity": 1
        },
        {
          "duration": 0.29999999999999716,
          "durationTicks": 128,
          "midi": 45,
          "name": "A2",
          "ticks": 29824,
          "time": 69.89999999999999,
          "velocity": 1
        },
        {
          "duration": 0.29999999999999716,
          "durationTicks": 128,
          "midi": 34,
          "name": "A#1",
          "ticks": 29952,
          "time": 70.19999999999999,
          "velocity": 1
        },
        {
          "duration": 0.29999999999999716,
          "durationTicks": 128,
          "midi": 46,
          "name": "A#2",
          "ticks": 29952,
          "time": 70.19999999999999,
          "velocity": 1
        },
        {
          "duration": 0.30000000000001137,
          "durationTicks": 128,
          "midi": 36,
          "name": "C2",
          "ticks": 30080,
          "time": 70.49999999999999,
          "velocity": 1
        },
        {
          "duration": 0.30000000000001137,
          "durationTicks": 128,
          "midi": 48,
          "name": "C3",
          "ticks": 30080,
          "time": 70.49999999999999,
          "velocity": 1
        },
        {
          "duration": 0.29999999999999716,
          "durationTicks": 128,
          "midi": 60,
          "name": "C4",
          "ticks": 30208,
          "time": 70.8,
          "velocity": 1
        },
        {
          "duration": 0.29999999999999716,
          "durationTicks": 128,
          "midi": 69,
          "name": "A4",
          "ticks": 30208,
          "time": 70.8,
          "velocity": 1
        },
        {
          "duration": 0.29999999999999716,
          "durationTicks": 128,
          "midi": 72,
          "name": "C5",
          "ticks": 30208,
          "time": 70.8,
          "velocity": 1
        },
        {
          "duration": 0.5999999999999943,
          "durationTicks": 256,
          "midi": 38,
          "name": "D2",
          "ticks": 30208,
          "time": 70.8,
          "velocity": 1
        },
        {
          "duration": 0.5999999999999943,
          "durationTicks": 256,
          "midi": 50,
          "name": "D3",
          "ticks": 30208,
          "time": 70.8,
          "velocity": 1
        },
        {
          "duration": 0.29999999999999716,
          "durationTicks": 128,
          "midi": 58,
          "name": "A#3",
          "ticks": 30336,
          "time": 71.1,
          "velocity": 1
        },
        {
          "duration": 0.29999999999999716,
          "durationTicks": 128,
          "midi": 67,
          "name": "G4",
          "ticks": 30336,
          "time": 71.1,
          "velocity": 1
        },
        {
          "duration": 0.29999999999999716,
          "durationTicks": 128,
          "midi": 70,
          "name": "A#4",
          "ticks": 30336,
          "time": 71.1,
          "velocity": 1
        },
        {
          "duration": 0.29999999999999716,
          "durationTicks": 128,
          "midi": 57,
          "name": "A3",
          "ticks": 30464,
          "time": 71.39999999999999,
          "velocity": 1
        },
        {
          "duration": 0.29999999999999716,
          "durationTicks": 128,
          "midi": 65,
          "name": "F4",
          "ticks": 30464,
          "time": 71.39999999999999,
          "velocity": 1
        },
        {
          "duration": 0.29999999999999716,
          "durationTicks": 128,
          "midi": 69,
          "name": "A4",
          "ticks": 30464,
          "time": 71.39999999999999,
          "velocity": 1
        },
        {
          "duration": 0.5999999999999943,
          "durationTicks": 256,
          "midi": 38,
          "name": "D2",
          "ticks": 30464,
          "time": 71.39999999999999,
          "velocity": 1
        },
        {
          "duration": 0.5999999999999943,
          "durationTicks": 256,
          "midi": 50,
          "name": "D3",
          "ticks": 30464,
          "time": 71.39999999999999,
          "velocity": 1
        },
        {
          "duration": 0.29999999999999716,
          "durationTicks": 128,
          "midi": 58,
          "name": "A#3",
          "ticks": 30592,
          "time": 71.69999999999999,
          "velocity": 1
        },
        {
          "duration": 0.29999999999999716,
          "durationTicks": 128,
          "midi": 67,
          "name": "G4",
          "ticks": 30592,
          "time": 71.69999999999999,
          "velocity": 1
        },
        {
          "duration": 0.29999999999999716,
          "durationTicks": 128,
          "midi": 70,
          "name": "A#4",
          "ticks": 30592,
          "time": 71.69999999999999,
          "velocity": 1
        },
        {
          "duration": 0.9000000000000057,
          "durationTicks": 384,
          "midi": 60,
          "name": "C4",
          "ticks": 30720,
          "time": 71.99999999999999,
          "velocity": 1
        },
        {
          "duration": 0.9000000000000057,
          "durationTicks": 384,
          "midi": 65,
          "name": "F4",
          "ticks": 30720,
          "time": 71.99999999999999,
          "velocity": 1
        },
        {
          "duration": 0.9000000000000057,
          "durationTicks": 384,
          "midi": 69,
          "name": "A4",
          "ticks": 30720,
          "time": 71.99999999999999,
          "velocity": 1
        },
        {
          "duration": 0.9000000000000057,
          "durationTicks": 384,
          "midi": 72,
          "name": "C5",
          "ticks": 30720,
          "time": 71.99999999999999,
          "velocity": 1
        },
        {
          "duration": 1.8000000000000114,
          "durationTicks": 768,
          "midi": 53,
          "name": "F3",
          "ticks": 30720,
          "time": 71.99999999999999,
          "velocity": 1
        },
        {
          "duration": 0.30000000000001137,
          "durationTicks": 128,
          "midi": 41,
          "name": "F2",
          "ticks": 30720,
          "time": 71.99999999999999,
          "velocity": 1
        },
        {
          "duration": 0.29999999999999716,
          "durationTicks": 128,
          "midi": 41,
          "name": "F2",
          "ticks": 30848,
          "time": 72.3,
          "velocity": 1
        },
        {
          "duration": 0.29999999999999716,
          "durationTicks": 128,
          "midi": 45,
          "name": "A2",
          "ticks": 30976,
          "time": 72.6,
          "velocity": 1
        },
        {
          "duration": 0.29999999999999716,
          "durationTicks": 128,
          "midi": 57,
          "name": "A3",
          "ticks": 31104,
          "time": 72.89999999999999,
          "velocity": 1
        },
        {
          "duration": 0.29999999999999716,
          "durationTicks": 128,
          "midi": 60,
          "name": "C4",
          "ticks": 31104,
          "time": 72.89999999999999,
          "velocity": 1
        },
        {
          "duration": 0.29999999999999716,
          "durationTicks": 128,
          "midi": 65,
          "name": "F4",
          "ticks": 31104,
          "time": 72.89999999999999,
          "velocity": 1
        },
        {
          "duration": 0.29999999999999716,
          "durationTicks": 128,
          "midi": 48,
          "name": "C3",
          "ticks": 31104,
          "time": 72.89999999999999,
          "velocity": 1
        },
        {
          "duration": 0.29999999999999716,
          "durationTicks": 128,
          "midi": 57,
          "name": "A3",
          "ticks": 31232,
          "time": 73.19999999999999,
          "velocity": 1
        },
        {
          "duration": 0.29999999999999716,
          "durationTicks": 128,
          "midi": 60,
          "name": "C4",
          "ticks": 31232,
          "time": 73.19999999999999,
          "velocity": 1
        },
        {
          "duration": 0.29999999999999716,
          "durationTicks": 128,
          "midi": 65,
          "name": "F4",
          "ticks": 31232,
          "time": 73.19999999999999,
          "velocity": 1
        },
        {
          "duration": 0.6000000000000085,
          "durationTicks": 256,
          "midi": 41,
          "name": "F2",
          "ticks": 31232,
          "time": 73.19999999999999,
          "velocity": 1
        },
        {
          "duration": 0.30000000000001137,
          "durationTicks": 128,
          "midi": 57,
          "name": "A3",
          "ticks": 31360,
          "time": 73.49999999999999,
          "velocity": 1
        },
        {
          "duration": 0.30000000000001137,
          "durationTicks": 128,
          "midi": 65,
          "name": "F4",
          "ticks": 31360,
          "time": 73.49999999999999,
          "velocity": 1
        },
        {
          "duration": 0.30000000000001137,
          "durationTicks": 128,
          "midi": 69,
          "name": "A4",
          "ticks": 31360,
          "time": 73.49999999999999,
          "velocity": 1
        },
        {
          "duration": 0.29999999999999716,
          "durationTicks": 128,
          "midi": 58,
          "name": "A#3",
          "ticks": 31488,
          "time": 73.8,
          "velocity": 1
        },
        {
          "duration": 0.29999999999999716,
          "durationTicks": 128,
          "midi": 67,
          "name": "G4",
          "ticks": 31488,
          "time": 73.8,
          "velocity": 1
        },
        {
          "duration": 0.29999999999999716,
          "durationTicks": 128,
          "midi": 70,
          "name": "A#4",
          "ticks": 31488,
          "time": 73.8,
          "velocity": 1
        },
        {
          "duration": 0.29999999999999716,
          "durationTicks": 128,
          "midi": 51,
          "name": "D#3",
          "ticks": 31488,
          "time": 73.8,
          "velocity": 1
        },
        {
          "duration": 0.29999999999999716,
          "durationTicks": 128,
          "midi": 39,
          "name": "D#2",
          "ticks": 31488,
          "time": 73.8,
          "velocity": 1
        },
        {
          "duration": 0.29999999999999716,
          "durationTicks": 128,
          "midi": 60,
          "name": "C4",
          "ticks": 31616,
          "time": 74.1,
          "velocity": 1
        },
        {
          "duration": 0.29999999999999716,
          "durationTicks": 128,
          "midi": 69,
          "name": "A4",
          "ticks": 31616,
          "time": 74.1,
          "velocity": 1
        },
        {
          "duration": 0.29999999999999716,
          "durationTicks": 128,
          "midi": 72,
          "name": "C5",
          "ticks": 31616,
          "time": 74.1,
          "velocity": 1
        },
        {
          "duration": 0.29999999999999716,
          "durationTicks": 128,
          "midi": 50,
          "name": "D3",
          "ticks": 31616,
          "time": 74.1,
          "velocity": 1
        },
        {
          "duration": 0.29999999999999716,
          "durationTicks": 128,
          "midi": 38,
          "name": "D2",
          "ticks": 31616,
          "time": 74.1,
          "velocity": 1
        },
        {
          "duration": 1.2000000000000028,
          "durationTicks": 512,
          "midi": 58,
          "name": "A#3",
          "ticks": 31744,
          "time": 74.39999999999999,
          "velocity": 1
        },
        {
          "duration": 1.2000000000000028,
          "durationTicks": 512,
          "midi": 62,
          "name": "D4",
          "ticks": 31744,
          "time": 74.39999999999999,
          "velocity": 1
        },
        {
          "duration": 1.2000000000000028,
          "durationTicks": 512,
          "midi": 67,
          "name": "G4",
          "ticks": 31744,
          "time": 74.39999999999999,
          "velocity": 1
        },
        {
          "duration": 1.2000000000000028,
          "durationTicks": 512,
          "midi": 70,
          "name": "A#4",
          "ticks": 31744,
          "time": 74.39999999999999,
          "velocity": 1
        },
        {
          "duration": 0.29999999999999716,
          "durationTicks": 128,
          "midi": 43,
          "name": "G2",
          "ticks": 31744,
          "time": 74.39999999999999,
          "velocity": 1
        },
        {
          "duration": 0.5999999999999943,
          "durationTicks": 256,
          "midi": 31,
          "name": "G1",
          "ticks": 31744,
          "time": 74.39999999999999,
          "velocity": 1
        },
        {
          "duration": 0.29999999999999716,
          "durationTicks": 128,
          "midi": 38,
          "name": "D2",
          "ticks": 31872,
          "time": 74.69999999999999,
          "velocity": 1
        },
        {
          "duration": 0.30000000000001137,
          "durationTicks": 128,
          "midi": 43,
          "name": "G2",
          "ticks": 32000,
          "time": 74.99999999999999,
          "velocity": 1
        },
        {
          "duration": 0.30000000000001137,
          "durationTicks": 128,
          "midi": 31,
          "name": "G1",
          "ticks": 32000,
          "time": 74.99999999999999,
          "velocity": 1
        },
        {
          "duration": 0.29999999999999716,
          "durationTicks": 128,
          "midi": 45,
          "name": "A2",
          "ticks": 32128,
          "time": 75.3,
          "velocity": 1
        },
        {
          "duration": 0.29999999999999716,
          "durationTicks": 128,
          "midi": 33,
          "name": "A1",
          "ticks": 32128,
          "time": 75.3,
          "velocity": 1
        },
        {
          "duration": 0.29999999999999716,
          "durationTicks": 128,
          "midi": 57,
          "name": "A3",
          "ticks": 32256,
          "time": 75.6,
          "velocity": 1
        },
        {
          "duration": 0.29999999999999716,
          "durationTicks": 128,
          "midi": 65,
          "name": "F4",
          "ticks": 32256,
          "time": 75.6,
          "velocity": 1
        },
        {
          "duration": 0.29999999999999716,
          "durationTicks": 128,
          "midi": 69,
          "name": "A4",
          "ticks": 32256,
          "time": 75.6,
          "velocity": 1
        },
        {
          "duration": 0.5999999999999943,
          "durationTicks": 256,
          "midi": 46,
          "name": "A#2",
          "ticks": 32256,
          "time": 75.6,
          "velocity": 1
        },
        {
          "duration": 0.5999999999999943,
          "durationTicks": 256,
          "midi": 34,
          "name": "A#1",
          "ticks": 32256,
          "time": 75.6,
          "velocity": 1
        },
        {
          "duration": 0.29999999999999716,
          "durationTicks": 128,
          "midi": 55,
          "name": "G3",
          "ticks": 32384,
          "time": 75.89999999999999,
          "velocity": 1
        },
        {
          "duration": 0.29999999999999716,
          "durationTicks": 128,
          "midi": 64,
          "name": "E4",
          "ticks": 32384,
          "time": 75.89999999999999,
          "velocity": 1
        },
        {
          "duration": 0.29999999999999716,
          "durationTicks": 128,
          "midi": 67,
          "name": "G4",
          "ticks": 32384,
          "time": 75.89999999999999,
          "velocity": 1
        },
        {
          "duration": 0.29999999999999716,
          "durationTicks": 128,
          "midi": 53,
          "name": "F3",
          "ticks": 32512,
          "time": 76.19999999999999,
          "velocity": 1
        },
        {
          "duration": 0.29999999999999716,
          "durationTicks": 128,
          "midi": 62,
          "name": "D4",
          "ticks": 32512,
          "time": 76.19999999999999,
          "velocity": 1
        },
        {
          "duration": 0.29999999999999716,
          "durationTicks": 128,
          "midi": 65,
          "name": "F4",
          "ticks": 32512,
          "time": 76.19999999999999,
          "velocity": 1
        },
        {
          "duration": 0.6000000000000085,
          "durationTicks": 256,
          "midi": 48,
          "name": "C3",
          "ticks": 32512,
          "time": 76.19999999999999,
          "velocity": 1
        },
        {
          "duration": 0.6000000000000085,
          "durationTicks": 256,
          "midi": 36,
          "name": "C2",
          "ticks": 32512,
          "time": 76.19999999999999,
          "velocity": 1
        },
        {
          "duration": 0.30000000000001137,
          "durationTicks": 128,
          "midi": 55,
          "name": "G3",
          "ticks": 32640,
          "time": 76.49999999999999,
          "velocity": 1
        },
        {
          "duration": 0.30000000000001137,
          "durationTicks": 128,
          "midi": 64,
          "name": "E4",
          "ticks": 32640,
          "time": 76.49999999999999,
          "velocity": 1
        },
        {
          "duration": 0.30000000000001137,
          "durationTicks": 128,
          "midi": 67,
          "name": "G4",
          "ticks": 32640,
          "time": 76.49999999999999,
          "velocity": 1
        },
        {
          "duration": 0.8999999999999915,
          "durationTicks": 384,
          "midi": 57,
          "name": "A3",
          "ticks": 32768,
          "time": 76.8,
          "velocity": 1
        },
        {
          "duration": 0.8999999999999915,
          "durationTicks": 384,
          "midi": 62,
          "name": "D4",
          "ticks": 32768,
          "time": 76.8,
          "velocity": 1
        },
        {
          "duration": 0.8999999999999915,
          "durationTicks": 384,
          "midi": 65,
          "name": "F4",
          "ticks": 32768,
          "time": 76.8,
          "velocity": 1
        },
        {
          "duration": 0.8999999999999915,
          "durationTicks": 384,
          "midi": 69,
          "name": "A4",
          "ticks": 32768,
          "time": 76.8,
          "velocity": 1
        },
        {
          "duration": 1.7999999999999972,
          "durationTicks": 768,
          "midi": 50,
          "name": "D3",
          "ticks": 32768,
          "time": 76.8,
          "velocity": 1
        },
        {
          "duration": 0.29999999999999716,
          "durationTicks": 128,
          "midi": 38,
          "name": "D2",
          "ticks": 32768,
          "time": 76.8,
          "velocity": 1
        },
        {
          "duration": 0.29999999999999716,
          "durationTicks": 128,
          "midi": 38,
          "name": "D2",
          "ticks": 32896,
          "time": 77.1,
          "velocity": 1
        },
        {
          "duration": 0.29999999999999716,
          "durationTicks": 128,
          "midi": 41,
          "name": "F2",
          "ticks": 33024,
          "time": 77.39999999999999,
          "velocity": 1
        },
        {
          "duration": 0.29999999999999716,
          "durationTicks": 128,
          "midi": 53,
          "name": "F3",
          "ticks": 33152,
          "time": 77.69999999999999,
          "velocity": 1
        },
        {
          "duration": 0.29999999999999716,
          "durationTicks": 128,
          "midi": 57,
          "name": "A3",
          "ticks": 33152,
          "time": 77.69999999999999,
          "velocity": 1
        },
        {
          "duration": 0.29999999999999716,
          "durationTicks": 128,
          "midi": 62,
          "name": "D4",
          "ticks": 33152,
          "time": 77.69999999999999,
          "velocity": 1
        },
        {
          "duration": 0.29999999999999716,
          "durationTicks": 128,
          "midi": 45,
          "name": "A2",
          "ticks": 33152,
          "time": 77.69999999999999,
          "velocity": 1
        },
        {
          "duration": 0.30000000000001137,
          "durationTicks": 128,
          "midi": 53,
          "name": "F3",
          "ticks": 33280,
          "time": 77.99999999999999,
          "velocity": 1
        },
        {
          "duration": 0.30000000000001137,
          "durationTicks": 128,
          "midi": 57,
          "name": "A3",
          "ticks": 33280,
          "time": 77.99999999999999,
          "velocity": 1
        },
        {
          "duration": 0.30000000000001137,
          "durationTicks": 128,
          "midi": 62,
          "name": "D4",
          "ticks": 33280,
          "time": 77.99999999999999,
          "velocity": 1
        },
        {
          "duration": 0.6000000000000085,
          "durationTicks": 256,
          "midi": 38,
          "name": "D2",
          "ticks": 33280,
          "time": 77.99999999999999,
          "velocity": 1
        },
        {
          "duration": 0.29999999999999716,
          "durationTicks": 128,
          "midi": 53,
          "name": "F3",
          "ticks": 33408,
          "time": 78.3,
          "velocity": 1
        },
        {
          "duration": 0.29999999999999716,
          "durationTicks": 128,
          "midi": 62,
          "name": "D4",
          "ticks": 33408,
          "time": 78.3,
          "velocity": 1
        },
        {
          "duration": 0.29999999999999716,
          "durationTicks": 128,
          "midi": 65,
          "name": "F4",
          "ticks": 33408,
          "time": 78.3,
          "velocity": 1
        },
        {
          "duration": 0.29999999999999716,
          "durationTicks": 128,
          "midi": 55,
          "name": "G3",
          "ticks": 33536,
          "time": 78.6,
          "velocity": 1
        },
        {
          "duration": 0.29999999999999716,
          "durationTicks": 128,
          "midi": 58,
          "name": "A#3",
          "ticks": 33536,
          "time": 78.6,
          "velocity": 1
        },
        {
          "duration": 0.29999999999999716,
          "durationTicks": 128,
          "midi": 63,
          "name": "D#4",
          "ticks": 33536,
          "time": 78.6,
          "velocity": 1
        },
        {
          "duration": 0.29999999999999716,
          "durationTicks": 128,
          "midi": 67,
          "name": "G4",
          "ticks": 33536,
          "time": 78.6,
          "velocity": 1
        },
        {
          "duration": 0.5999999999999943,
          "durationTicks": 256,
          "midi": 48,
          "name": "C3",
          "ticks": 33536,
          "time": 78.6,
          "velocity": 1
        },
        {
          "duration": 0.5999999999999943,
          "durationTicks": 256,
          "midi": 36,
          "name": "C2",
          "ticks": 33536,
          "time": 78.6,
          "velocity": 1
        },
        {
          "duration": 0.29999999999999716,
          "durationTicks": 128,
          "midi": 57,
          "name": "A3",
          "ticks": 33664,
          "time": 78.89999999999999,
          "velocity": 1
        },
        {
          "duration": 0.29999999999999716,
          "durationTicks": 128,
          "midi": 65,
          "name": "F4",
          "ticks": 33664,
          "time": 78.89999999999999,
          "velocity": 1
        },
        {
          "duration": 0.29999999999999716,
          "durationTicks": 128,
          "midi": 69,
          "name": "A4",
          "ticks": 33664,
          "time": 78.89999999999999,
          "velocity": 1
        },
        {
          "duration": 0.6000000000000085,
          "durationTicks": 256,
          "midi": 58,
          "name": "A#3",
          "ticks": 33792,
          "time": 79.19999999999999,
          "velocity": 1
        },
        {
          "duration": 0.6000000000000085,
          "durationTicks": 256,
          "midi": 67,
          "name": "G4",
          "ticks": 33792,
          "time": 79.19999999999999,
          "velocity": 1
        },
        {
          "duration": 0.6000000000000085,
          "durationTicks": 256,
          "midi": 70,
          "name": "A#4",
          "ticks": 33792,
          "time": 79.19999999999999,
          "velocity": 1
        },
        {
          "duration": 0.29999999999999716,
          "durationTicks": 128,
          "midi": 27,
          "name": "D#1",
          "ticks": 33792,
          "time": 79.19999999999999,
          "velocity": 1
        },
        {
          "duration": 0.29999999999999716,
          "durationTicks": 128,
          "midi": 39,
          "name": "D#2",
          "ticks": 33792,
          "time": 79.19999999999999,
          "velocity": 1
        },
        {
          "duration": 0.30000000000001137,
          "durationTicks": 128,
          "midi": 31,
          "name": "G1",
          "ticks": 33920,
          "time": 79.49999999999999,
          "velocity": 1
        },
        {
          "duration": 0.30000000000001137,
          "durationTicks": 128,
          "midi": 43,
          "name": "G2",
          "ticks": 33920,
          "time": 79.49999999999999,
          "velocity": 1
        },
        {
          "duration": 0.5999999999999943,
          "durationTicks": 256,
          "midi": 58,
          "name": "A#3",
          "ticks": 34048,
          "time": 79.8,
          "velocity": 1
        },
        {
          "duration": 0.44999999999998863,
          "durationTicks": 192,
          "midi": 63,
          "name": "D#4",
          "ticks": 34048,
          "time": 79.8,
          "velocity": 1
        },
        {
          "duration": 0.44999999999998863,
          "durationTicks": 192,
          "midi": 67,
          "name": "G4",
          "ticks": 34048,
          "time": 79.8,
          "velocity": 1
        },
        {
          "duration": 0.29999999999999716,
          "durationTicks": 128,
          "midi": 34,
          "name": "A#1",
          "ticks": 34048,
          "time": 79.8,
          "velocity": 1
        },
        {
          "duration": 0.29999999999999716,
          "durationTicks": 128,
          "midi": 46,
          "name": "A#2",
          "ticks": 34048,
          "time": 79.8,
          "velocity": 1
        },
        {
          "duration": 0.29999999999999716,
          "durationTicks": 128,
          "midi": 33,
          "name": "A1",
          "ticks": 34176,
          "time": 80.1,
          "velocity": 1
        },
        {
          "duration": 0.29999999999999716,
          "durationTicks": 128,
          "midi": 45,
          "name": "A2",
          "ticks": 34176,
          "time": 80.1,
          "velocity": 1
        },
        {
          "duration": 0.15000000000000568,
          "durationTicks": 64,
          "midi": 69,
          "name": "A4",
          "ticks": 34240,
          "time": 80.24999999999999,
          "velocity": 1
        },
        {
          "duration": 0.5999999999999943,
          "durationTicks": 256,
          "midi": 58,
          "name": "A#3",
          "ticks": 34304,
          "time": 80.39999999999999,
          "velocity": 1
        },
        {
          "duration": 0.5999999999999943,
          "durationTicks": 256,
          "midi": 67,
          "name": "G4",
          "ticks": 34304,
          "time": 80.39999999999999,
          "velocity": 1
        },
        {
          "duration": 0.5999999999999943,
          "durationTicks": 256,
          "midi": 70,
          "name": "A#4",
          "ticks": 34304,
          "time": 80.39999999999999,
          "velocity": 1
        },
        {
          "duration": 0.5999999999999943,
          "durationTicks": 256,
          "midi": 31,
          "name": "G1",
          "ticks": 34304,
          "time": 80.39999999999999,
          "velocity": 1
        },
        {
          "duration": 0.5999999999999943,
          "durationTicks": 256,
          "midi": 43,
          "name": "G2",
          "ticks": 34304,
          "time": 80.39999999999999,
          "velocity": 1
        },
        {
          "duration": 0.6000000000000085,
          "durationTicks": 256,
          "midi": 58,
          "name": "A#3",
          "ticks": 34560,
          "time": 80.99999999999999,
          "velocity": 1
        },
        {
          "duration": 0.45000000000000284,
          "durationTicks": 192,
          "midi": 63,
          "name": "D#4",
          "ticks": 34560,
          "time": 80.99999999999999,
          "velocity": 1
        },
        {
          "duration": 0.45000000000000284,
          "durationTicks": 192,
          "midi": 67,
          "name": "G4",
          "ticks": 34560,
          "time": 80.99999999999999,
          "velocity": 1
        },
        {
          "duration": 0.30000000000001137,
          "durationTicks": 128,
          "midi": 31,
          "name": "G1",
          "ticks": 34560,
          "time": 80.99999999999999,
          "velocity": 1
        },
        {
          "duration": 0.30000000000001137,
          "durationTicks": 128,
          "midi": 43,
          "name": "G2",
          "ticks": 34560,
          "time": 80.99999999999999,
          "velocity": 1
        },
        {
          "duration": 0.29999999999999716,
          "durationTicks": 128,
          "midi": 29,
          "name": "F1",
          "ticks": 34688,
          "time": 81.3,
          "velocity": 1
        },
        {
          "duration": 0.29999999999999716,
          "durationTicks": 128,
          "midi": 41,
          "name": "F2",
          "ticks": 34688,
          "time": 81.3,
          "velocity": 1
        },
        {
          "duration": 0.15000000000000568,
          "durationTicks": 64,
          "midi": 69,
          "name": "A4",
          "ticks": 34752,
          "time": 81.44999999999999,
          "velocity": 1
        },
        {
          "duration": 0.5999999999999943,
          "durationTicks": 256,
          "midi": 58,
          "name": "A#3",
          "ticks": 34816,
          "time": 81.6,
          "velocity": 1
        },
        {
          "duration": 0.5999999999999943,
          "durationTicks": 256,
          "midi": 67,
          "name": "G4",
          "ticks": 34816,
          "time": 81.6,
          "velocity": 1
        },
        {
          "duration": 0.5999999999999943,
          "durationTicks": 256,
          "midi": 70,
          "name": "A#4",
          "ticks": 34816,
          "time": 81.6,
          "velocity": 1
        },
        {
          "duration": 0.8999999999999915,
          "durationTicks": 384,
          "midi": 27,
          "name": "D#1",
          "ticks": 34816,
          "time": 81.6,
          "velocity": 1
        },
        {
          "duration": 0.8999999999999915,
          "durationTicks": 384,
          "midi": 39,
          "name": "D#2",
          "ticks": 34816,
          "time": 81.6,
          "velocity": 1
        },
        {
          "duration": 0.29999999999999716,
          "durationTicks": 128,
          "midi": 58,
          "name": "A#3",
          "ticks": 35072,
          "time": 82.19999999999999,
          "velocity": 1
        },
        {
          "duration": 0.29999999999999716,
          "durationTicks": 128,
          "midi": 63,
          "name": "D#4",
          "ticks": 35072,
          "time": 82.19999999999999,
          "velocity": 1
        },
        {
          "duration": 0.29999999999999716,
          "durationTicks": 128,
          "midi": 67,
          "name": "G4",
          "ticks": 35072,
          "time": 82.19999999999999,
          "velocity": 1
        },
        {
          "duration": 0.30000000000001137,
          "durationTicks": 128,
          "midi": 58,
          "name": "A#3",
          "ticks": 35200,
          "time": 82.49999999999999,
          "velocity": 1
        },
        {
          "duration": 0.30000000000001137,
          "durationTicks": 128,
          "midi": 67,
          "name": "G4",
          "ticks": 35200,
          "time": 82.49999999999999,
          "velocity": 1
        },
        {
          "duration": 0.30000000000001137,
          "durationTicks": 128,
          "midi": 70,
          "name": "A#4",
          "ticks": 35200,
          "time": 82.49999999999999,
          "velocity": 1
        },
        {
          "duration": 0.30000000000001137,
          "durationTicks": 128,
          "midi": 34,
          "name": "A#1",
          "ticks": 35200,
          "time": 82.49999999999999,
          "velocity": 1
        },
        {
          "duration": 0.30000000000001137,
          "durationTicks": 128,
          "midi": 46,
          "name": "A#2",
          "ticks": 35200,
          "time": 82.49999999999999,
          "velocity": 1
        },
        {
          "duration": 1.1999999999999886,
          "durationTicks": 512,
          "midi": 63,
          "name": "D#4",
          "ticks": 35328,
          "time": 82.8,
          "velocity": 1
        },
        {
          "duration": 1.1999999999999886,
          "durationTicks": 512,
          "midi": 67,
          "name": "G4",
          "ticks": 35328,
          "time": 82.8,
          "velocity": 1
        },
        {
          "duration": 1.1999999999999886,
          "durationTicks": 512,
          "midi": 70,
          "name": "A#4",
          "ticks": 35328,
          "time": 82.8,
          "velocity": 1
        },
        {
          "duration": 1.1999999999999886,
          "durationTicks": 512,
          "midi": 75,
          "name": "D#5",
          "ticks": 35328,
          "time": 82.8,
          "velocity": 1
        },
        {
          "duration": 0.29999999999999716,
          "durationTicks": 128,
          "midi": 43,
          "name": "G2",
          "ticks": 35328,
          "time": 82.8,
          "velocity": 1
        },
        {
          "duration": 0.29999999999999716,
          "durationTicks": 128,
          "midi": 55,
          "name": "G3",
          "ticks": 35328,
          "time": 82.8,
          "velocity": 1
        },
        {
          "duration": 0.29999999999999716,
          "durationTicks": 128,
          "midi": 41,
          "name": "F2",
          "ticks": 35456,
          "time": 83.1,
          "velocity": 1
        },
        {
          "duration": 0.29999999999999716,
          "durationTicks": 128,
          "midi": 53,
          "name": "F3",
          "ticks": 35456,
          "time": 83.1,
          "velocity": 1
        },
        {
          "duration": 0.29999999999999716,
          "durationTicks": 128,
          "midi": 39,
          "name": "D#2",
          "ticks": 35584,
          "time": 83.39999999999999,
          "velocity": 1
        },
        {
          "duration": 0.29999999999999716,
          "durationTicks": 128,
          "midi": 51,
          "name": "D#3",
          "ticks": 35584,
          "time": 83.39999999999999,
          "velocity": 1
        },
        {
          "duration": 0.29999999999999716,
          "durationTicks": 128,
          "midi": 38,
          "name": "D2",
          "ticks": 35712,
          "time": 83.69999999999999,
          "velocity": 1
        },
        {
          "duration": 0.29999999999999716,
          "durationTicks": 128,
          "midi": 50,
          "name": "D3",
          "ticks": 35712,
          "time": 83.69999999999999,
          "velocity": 1
        },
        {
          "duration": 1.2000000000000028,
          "durationTicks": 512,
          "midi": 75,
          "name": "D#5",
          "ticks": 35840,
          "time": 83.99999999999999,
          "velocity": 1
        },
        {
          "duration": 1.2000000000000028,
          "durationTicks": 512,
          "midi": 63,
          "name": "D#4",
          "ticks": 35840,
          "time": 83.99999999999999,
          "velocity": 1
        },
        {
          "duration": 1.2000000000000028,
          "durationTicks": 512,
          "midi": 67,
          "name": "G4",
          "ticks": 35840,
          "time": 83.99999999999999,
          "velocity": 1
        },
        {
          "duration": 1.2000000000000028,
          "durationTicks": 512,
          "midi": 70,
          "name": "A#4",
          "ticks": 35840,
          "time": 83.99999999999999,
          "velocity": 1
        },
        {
          "duration": 0.6000000000000085,
          "durationTicks": 256,
          "midi": 36,
          "name": "C2",
          "ticks": 35840,
          "time": 83.99999999999999,
          "velocity": 1
        },
        {
          "duration": 0.6000000000000085,
          "durationTicks": 256,
          "midi": 48,
          "name": "C3",
          "ticks": 35840,
          "time": 83.99999999999999,
          "velocity": 1
        },
        {
          "duration": 0.29999999999999716,
          "durationTicks": 128,
          "midi": 38,
          "name": "D2",
          "ticks": 36096,
          "time": 84.6,
          "velocity": 1
        },
        {
          "duration": 0.29999999999999716,
          "durationTicks": 128,
          "midi": 50,
          "name": "D3",
          "ticks": 36096,
          "time": 84.6,
          "velocity": 1
        },
        {
          "duration": 0.29999999999999716,
          "durationTicks": 128,
          "midi": 39,
          "name": "D#2",
          "ticks": 36224,
          "time": 84.89999999999999,
          "velocity": 1
        },
        {
          "duration": 0.29999999999999716,
          "durationTicks": 128,
          "midi": 51,
          "name": "D#3",
          "ticks": 36224,
          "time": 84.89999999999999,
          "velocity": 1
        },
        {
          "duration": 0.29999999999999716,
          "durationTicks": 128,
          "midi": 74,
          "name": "D5",
          "ticks": 36352,
          "time": 85.19999999999999,
          "velocity": 1
        },
        {
          "duration": 0.6000000000000085,
          "durationTicks": 256,
          "midi": 65,
          "name": "F4",
          "ticks": 36352,
          "time": 85.19999999999999,
          "velocity": 1
        },
        {
          "duration": 0.6000000000000085,
          "durationTicks": 256,
          "midi": 69,
          "name": "A4",
          "ticks": 36352,
          "time": 85.19999999999999,
          "velocity": 1
        },
        {
          "duration": 0.6000000000000085,
          "durationTicks": 256,
          "midi": 41,
          "name": "F2",
          "ticks": 36352,
          "time": 85.19999999999999,
          "velocity": 1
        },
        {
          "duration": 0.6000000000000085,
          "durationTicks": 256,
          "midi": 53,
          "name": "F3",
          "ticks": 36352,
          "time": 85.19999999999999,
          "velocity": 1
        },
        {
          "duration": 0.30000000000001137,
          "durationTicks": 128,
          "midi": 72,
          "name": "C5",
          "ticks": 36480,
          "time": 85.49999999999999,
          "velocity": 1
        },
        {
          "duration": 0.29999999999999716,
          "durationTicks": 128,
          "midi": 67,
          "name": "G4",
          "ticks": 36608,
          "time": 85.8,
          "velocity": 1
        },
        {
          "duration": 0.29999999999999716,
          "durationTicks": 128,
          "midi": 70,
          "name": "A#4",
          "ticks": 36608,
          "time": 85.8,
          "velocity": 1
        },
        {
          "duration": 0.5999999999999943,
          "durationTicks": 256,
          "midi": 63,
          "name": "D#4",
          "ticks": 36608,
          "time": 85.8,
          "velocity": 1
        },
        {
          "duration": 0.5999999999999943,
          "durationTicks": 256,
          "midi": 29,
          "name": "F1",
          "ticks": 36608,
          "time": 85.8,
          "velocity": 1
        },
        {
          "duration": 0.5999999999999943,
          "durationTicks": 256,
          "midi": 41,
          "name": "F2",
          "ticks": 36608,
          "time": 85.8,
          "velocity": 1
        },
        {
          "duration": 0.29999999999999716,
          "durationTicks": 128,
          "midi": 65,
          "name": "F4",
          "ticks": 36736,
          "time": 86.1,
          "velocity": 1
        },
        {
          "duration": 0.29999999999999716,
          "durationTicks": 128,
          "midi": 69,
          "name": "A4",
          "ticks": 36736,
          "time": 86.1,
          "velocity": 1
        },
        {
          "duration": 0.29999999999999716,
          "durationTicks": 128,
          "midi": 72,
          "name": "C5",
          "ticks": 36736,
          "time": 86.1,
          "velocity": 1
        },
        {
          "duration": 0.9000000000000057,
          "durationTicks": 384,
          "midi": 62,
          "name": "D4",
          "ticks": 36864,
          "time": 86.39999999999999,
          "velocity": 1
        },
        {
          "duration": 0.9000000000000057,
          "durationTicks": 384,
          "midi": 65,
          "name": "F4",
          "ticks": 36864,
          "time": 86.39999999999999,
          "velocity": 1
        },
        {
          "duration": 0.9000000000000057,
          "durationTicks": 384,
          "midi": 70,
          "name": "A#4",
          "ticks": 36864,
          "time": 86.39999999999999,
          "velocity": 1
        },
        {
          "duration": 0.9000000000000057,
          "durationTicks": 384,
          "midi": 74,
          "name": "D5",
          "ticks": 36864,
          "time": 86.39999999999999,
          "velocity": 1
        },
        {
          "duration": 0.5999999999999943,
          "durationTicks": 256,
          "midi": 34,
          "name": "A#1",
          "ticks": 36864,
          "time": 86.39999999999999,
          "velocity": 1
        },
        {
          "duration": 0.5999999999999943,
          "durationTicks": 256,
          "midi": 46,
          "name": "A#2",
          "ticks": 36864,
          "time": 86.39999999999999,
          "velocity": 1
        },
        {
          "duration": 0.6000000000000085,
          "durationTicks": 256,
          "midi": 36,
          "name": "C2",
          "ticks": 37120,
          "time": 86.99999999999999,
          "velocity": 1
        },
        {
          "duration": 0.6000000000000085,
          "durationTicks": 256,
          "midi": 48,
          "name": "C3",
          "ticks": 37120,
          "time": 86.99999999999999,
          "velocity": 1
        },
        {
          "duration": 0.29999999999999716,
          "durationTicks": 128,
          "midi": 62,
          "name": "D4",
          "ticks": 37248,
          "time": 87.3,
          "velocity": 1
        },
        {
          "duration": 0.29999999999999716,
          "durationTicks": 128,
          "midi": 65,
          "name": "F4",
          "ticks": 37248,
          "time": 87.3,
          "velocity": 1
        },
        {
          "duration": 0.29999999999999716,
          "durationTicks": 128,
          "midi": 70,
          "name": "A#4",
          "ticks": 37248,
          "time": 87.3,
          "velocity": 1
        },
        {
          "duration": 1.2000000000000028,
          "durationTicks": 512,
          "midi": 62,
          "name": "D4",
          "ticks": 37376,
          "time": 87.6,
          "velocity": 1
        },
        {
          "duration": 1.2000000000000028,
          "durationTicks": 512,
          "midi": 65,
          "name": "F4",
          "ticks": 37376,
          "time": 87.6,
          "velocity": 1
        },
        {
          "duration": 1.2000000000000028,
          "durationTicks": 512,
          "midi": 70,
          "name": "A#4",
          "ticks": 37376,
          "time": 87.6,
          "velocity": 1
        },
        {
          "duration": 0.5999999999999943,
          "durationTicks": 256,
          "midi": 38,
          "name": "D2",
          "ticks": 37376,
          "time": 87.6,
          "velocity": 1
        },
        {
          "duration": 0.5999999999999943,
          "durationTicks": 256,
          "midi": 50,
          "name": "D3",
          "ticks": 37376,
          "time": 87.6,
          "velocity": 1
        },
        {
          "duration": 0.6000000000000085,
          "durationTicks": 256,
          "midi": 41,
          "name": "F2",
          "ticks": 37632,
          "time": 88.19999999999999,
          "velocity": 1
        },
        {
          "duration": 0.6000000000000085,
          "durationTicks": 256,
          "midi": 53,
          "name": "F3",
          "ticks": 37632,
          "time": 88.19999999999999,
          "velocity": 1
        },
        {
          "duration": 1.1999999999999886,
          "durationTicks": 512,
          "midi": 72,
          "name": "C5",
          "ticks": 37888,
          "time": 88.8,
          "velocity": 1
        },
        {
          "duration": 1.1999999999999886,
          "durationTicks": 512,
          "midi": 60,
          "name": "C4",
          "ticks": 37888,
          "time": 88.8,
          "velocity": 1
        },
        {
          "duration": 1.1999999999999886,
          "durationTicks": 512,
          "midi": 63,
          "name": "D#4",
          "ticks": 37888,
          "time": 88.8,
          "velocity": 1
        },
        {
          "duration": 1.1999999999999886,
          "durationTicks": 512,
          "midi": 67,
          "name": "G4",
          "ticks": 37888,
          "time": 88.8,
          "velocity": 1
        },
        {
          "duration": 0.5999999999999943,
          "durationTicks": 256,
          "midi": 33,
          "name": "A1",
          "ticks": 37888,
          "time": 88.8,
          "velocity": 1
        },
        {
          "duration": 0.5999999999999943,
          "durationTicks": 256,
          "midi": 45,
          "name": "A2",
          "ticks": 37888,
          "time": 88.8,
          "velocity": 1
        },
        {
          "duration": 0.29999999999999716,
          "durationTicks": 128,
          "midi": 34,
          "name": "A#1",
          "ticks": 38144,
          "time": 89.39999999999999,
          "velocity": 1
        },
        {
          "duration": 0.29999999999999716,
          "durationTicks": 128,
          "midi": 46,
          "name": "A#2",
          "ticks": 38144,
          "time": 89.39999999999999,
          "velocity": 1
        },
        {
          "duration": 0.29999999999999716,
          "durationTicks": 128,
          "midi": 36,
          "name": "C2",
          "ticks": 38272,
          "time": 89.69999999999999,
          "velocity": 1
        },
        {
          "duration": 0.29999999999999716,
          "durationTicks": 128,
          "midi": 48,
          "name": "C3",
          "ticks": 38272,
          "time": 89.69999999999999,
          "velocity": 1
        },
        {
          "duration": 0.30000000000001137,
          "durationTicks": 128,
          "midi": 70,
          "name": "A#4",
          "ticks": 38400,
          "time": 89.99999999999999,
          "velocity": 1
        },
        {
          "duration": 0.6000000000000085,
          "durationTicks": 256,
          "midi": 62,
          "name": "D4",
          "ticks": 38400,
          "time": 89.99999999999999,
          "velocity": 1
        },
        {
          "duration": 0.6000000000000085,
          "durationTicks": 256,
          "midi": 66,
          "name": "F#4",
          "ticks": 38400,
          "time": 89.99999999999999,
          "velocity": 1
        },
        {
          "duration": 0.6000000000000085,
          "durationTicks": 256,
          "midi": 38,
          "name": "D2",
          "ticks": 38400,
          "time": 89.99999999999999,
          "velocity": 1
        },
        {
          "duration": 0.6000000000000085,
          "durationTicks": 256,
          "midi": 50,
          "name": "D3",
          "ticks": 38400,
          "time": 89.99999999999999,
          "velocity": 1
        },
        {
          "duration": 0.29999999999999716,
          "durationTicks": 128,
          "midi": 69,
          "name": "A4",
          "ticks": 38528,
          "time": 90.3,
          "velocity": 1
        },
        {
          "duration": 0.29999999999999716,
          "durationTicks": 128,
          "midi": 64,
          "name": "E4",
          "ticks": 38656,
          "time": 90.6,
          "velocity": 1
        },
        {
          "duration": 0.29999999999999716,
          "durationTicks": 128,
          "midi": 67,
          "name": "G4",
          "ticks": 38656,
          "time": 90.6,
          "velocity": 1
        },
        {
          "duration": 0.5999999999999943,
          "durationTicks": 256,
          "midi": 60,
          "name": "C4",
          "ticks": 38656,
          "time": 90.6,
          "velocity": 1
        },
        {
          "duration": 0.5999999999999943,
          "durationTicks": 256,
          "midi": 38,
          "name": "D2",
          "ticks": 38656,
          "time": 90.6,
          "velocity": 1
        },
        {
          "duration": 0.5999999999999943,
          "durationTicks": 256,
          "midi": 50,
          "name": "D3",
          "ticks": 38656,
          "time": 90.6,
          "velocity": 1
        },
        {
          "duration": 0.29999999999999716,
          "durationTicks": 128,
          "midi": 62,
          "name": "D4",
          "ticks": 38784,
          "time": 90.89999999999999,
          "velocity": 1
        },
        {
          "duration": 0.29999999999999716,
          "durationTicks": 128,
          "midi": 66,
          "name": "F#4",
          "ticks": 38784,
          "time": 90.89999999999999,
          "velocity": 1
        },
        {
          "duration": 0.29999999999999716,
          "durationTicks": 128,
          "midi": 69,
          "name": "A4",
          "ticks": 38784,
          "time": 90.89999999999999,
          "velocity": 1
        },
        {
          "duration": 0.9000000000000057,
          "durationTicks": 384,
          "midi": 58,
          "name": "A#3",
          "ticks": 38912,
          "time": 91.19999999999999,
          "velocity": 1
        },
        {
          "duration": 0.9000000000000057,
          "durationTicks": 384,
          "midi": 62,
          "name": "D4",
          "ticks": 38912,
          "time": 91.19999999999999,
          "velocity": 1
        },
        {
          "duration": 0.9000000000000057,
          "durationTicks": 384,
          "midi": 67,
          "name": "G4",
          "ticks": 38912,
          "time": 91.19999999999999,
          "velocity": 1
        },
        {
          "duration": 0.9000000000000057,
          "durationTicks": 384,
          "midi": 70,
          "name": "A#4",
          "ticks": 38912,
          "time": 91.19999999999999,
          "velocity": 1
        },
        {
          "duration": 0.29999999999999716,
          "durationTicks": 128,
          "midi": 31,
          "name": "G1",
          "ticks": 38912,
          "time": 91.19999999999999,
          "velocity": 1
        },
        {
          "duration": 0.29999999999999716,
          "durationTicks": 128,
          "midi": 43,
          "name": "G2",
          "ticks": 38912,
          "time": 91.19999999999999,
          "velocity": 1
        },
        {
          "duration": 0.30000000000001137,
          "durationTicks": 128,
          "midi": 33,
          "name": "A1",
          "ticks": 39040,
          "time": 91.49999999999999,
          "velocity": 1
        },
        {
          "duration": 0.30000000000001137,
          "durationTicks": 128,
          "midi": 45,
          "name": "A2",
          "ticks": 39040,
          "time": 91.49999999999999,
          "velocity": 1
        },
        {
          "duration": 0.29999999999999716,
          "durationTicks": 128,
          "midi": 34,
          "name": "A#1",
          "ticks": 39168,
          "time": 91.8,
          "velocity": 1
        },
        {
          "duration": 0.29999999999999716,
          "durationTicks": 128,
          "midi": 46,
          "name": "A#2",
          "ticks": 39168,
          "time": 91.8,
          "velocity": 1
        },
        {
          "duration": 0.29999999999999716,
          "durationTicks": 128,
          "midi": 58,
          "name": "A#3",
          "ticks": 39296,
          "time": 92.1,
          "velocity": 1
        },
        {
          "duration": 0.29999999999999716,
          "durationTicks": 128,
          "midi": 62,
          "name": "D4",
          "ticks": 39296,
          "time": 92.1,
          "velocity": 1
        },
        {
          "duration": 0.29999999999999716,
          "durationTicks": 128,
          "midi": 67,
          "name": "G4",
          "ticks": 39296,
          "time": 92.1,
          "velocity": 1
        },
        {
          "duration": 0.29999999999999716,
          "durationTicks": 128,
          "midi": 38,
          "name": "D2",
          "ticks": 39296,
          "time": 92.1,
          "velocity": 1
        },
        {
          "duration": 0.29999999999999716,
          "durationTicks": 128,
          "midi": 50,
          "name": "D3",
          "ticks": 39296,
          "time": 92.1,
          "velocity": 1
        },
        {
          "duration": 1.2000000000000028,
          "durationTicks": 512,
          "midi": 58,
          "name": "A#3",
          "ticks": 39424,
          "time": 92.39999999999999,
          "velocity": 1
        },
        {
          "duration": 1.2000000000000028,
          "durationTicks": 512,
          "midi": 62,
          "name": "D4",
          "ticks": 39424,
          "time": 92.39999999999999,
          "velocity": 1
        },
        {
          "duration": 1.2000000000000028,
          "durationTicks": 512,
          "midi": 67,
          "name": "G4",
          "ticks": 39424,
          "time": 92.39999999999999,
          "velocity": 1
        },
        {
          "duration": 0.5999999999999943,
          "durationTicks": 256,
          "midi": 43,
          "name": "G2",
          "ticks": 39424,
          "time": 92.39999999999999,
          "velocity": 1
        },
        {
          "duration": 0.5999999999999943,
          "durationTicks": 256,
          "midi": 55,
          "name": "G3",
          "ticks": 39424,
          "time": 92.39999999999999,
          "velocity": 1
        },
        {
          "duration": 0.6000000000000085,
          "durationTicks": 256,
          "midi": 41,
          "name": "F2",
          "ticks": 39680,
          "time": 92.99999999999999,
          "velocity": 1
        },
        {
          "duration": 0.6000000000000085,
          "durationTicks": 256,
          "midi": 53,
          "name": "F3",
          "ticks": 39680,
          "time": 92.99999999999999,
          "velocity": 1
        },
        {
          "duration": 0.5999999999999943,
          "durationTicks": 256,
          "midi": 70,
          "name": "A#4",
          "ticks": 39936,
          "time": 93.6,
          "velocity": 1
        },
        {
          "duration": 0.5999999999999943,
          "durationTicks": 256,
          "midi": 58,
          "name": "A#3",
          "ticks": 39936,
          "time": 93.6,
          "velocity": 1
        },
        {
          "duration": 0.5999999999999943,
          "durationTicks": 256,
          "midi": 67,
          "name": "G4",
          "ticks": 39936,
          "time": 93.6,
          "velocity": 1
        },
        {
          "duration": 0.5999999999999943,
          "durationTicks": 256,
          "midi": 39,
          "name": "D#2",
          "ticks": 39936,
          "time": 93.6,
          "velocity": 1
        },
        {
          "duration": 0.5999999999999943,
          "durationTicks": 256,
          "midi": 51,
          "name": "D#3",
          "ticks": 39936,
          "time": 93.6,
          "velocity": 1
        },
        {
          "duration": 0.45000000000000284,
          "durationTicks": 192,
          "midi": 58,
          "name": "A#3",
          "ticks": 40192,
          "time": 94.19999999999999,
          "velocity": 1
        },
        {
          "duration": 0.45000000000000284,
          "durationTicks": 192,
          "midi": 65,
          "name": "F4",
          "ticks": 40192,
          "time": 94.19999999999999,
          "velocity": 1
        },
        {
          "duration": 0.45000000000000284,
          "durationTicks": 192,
          "midi": 69,
          "name": "A4",
          "ticks": 40192,
          "time": 94.19999999999999,
          "velocity": 1
        },
        {
          "duration": 0.6000000000000085,
          "durationTicks": 256,
          "midi": 36,
          "name": "C2",
          "ticks": 40192,
          "time": 94.19999999999999,
          "velocity": 1
        },
        {
          "duration": 0.6000000000000085,
          "durationTicks": 256,
          "midi": 48,
          "name": "C3",
          "ticks": 40192,
          "time": 94.19999999999999,
          "velocity": 1
        },
        {
          "duration": 0.15000000000000568,
          "durationTicks": 64,
          "midi": 63,
          "name": "D#4",
          "ticks": 40384,
          "time": 94.64999999999999,
          "velocity": 1
        },
        {
          "duration": 0.15000000000000568,
          "durationTicks": 64,
          "midi": 67,
          "name": "G4",
          "ticks": 40384,
          "time": 94.64999999999999,
          "velocity": 1
        },
        {
          "duration": 0.5999999999999943,
          "durationTicks": 256,
          "midi": 53,
          "name": "F3",
          "ticks": 40448,
          "time": 94.8,
          "velocity": 1
        },
        {
          "duration": 0.5999999999999943,
          "durationTicks": 256,
          "midi": 58,
          "name": "A#3",
          "ticks": 40448,
          "time": 94.8,
          "velocity": 1
        },
        {
          "duration": 0.5999999999999943,
          "durationTicks": 256,
          "midi": 65,
          "name": "F4",
          "ticks": 40448,
          "time": 94.8,
          "velocity": 1
        },
        {
          "duration": 0.5999999999999943,
          "durationTicks": 256,
          "midi": 38,
          "name": "D2",
          "ticks": 40448,
          "time": 94.8,
          "velocity": 1
        },
        {
          "duration": 0.5999999999999943,
          "durationTicks": 256,
          "midi": 50,
          "name": "D3",
          "ticks": 40448,
          "time": 94.8,
          "velocity": 1
        },
        {
          "duration": 0.45000000000000284,
          "durationTicks": 192,
          "midi": 58,
          "name": "A#3",
          "ticks": 40704,
          "time": 95.39999999999999,
          "velocity": 1
        },
        {
          "duration": 0.5999999999999943,
          "durationTicks": 256,
          "midi": 53,
          "name": "F3",
          "ticks": 40704,
          "time": 95.39999999999999,
          "velocity": 1
        },
        {
          "duration": 0.5999999999999943,
          "durationTicks": 256,
          "midi": 38,
          "name": "D2",
          "ticks": 40704,
          "time": 95.39999999999999,
          "velocity": 1
        },
        {
          "duration": 0.5999999999999943,
          "durationTicks": 256,
          "midi": 50,
          "name": "D3",
          "ticks": 40704,
          "time": 95.39999999999999,
          "velocity": 1
        },
        {
          "duration": 0.14999999999999147,
          "durationTicks": 64,
          "midi": 58,
          "name": "A#3",
          "ticks": 40896,
          "time": 95.85,
          "velocity": 1
        },
        {
          "duration": 0.6000000000000085,
          "durationTicks": 256,
          "midi": 53,
          "name": "F3",
          "ticks": 40960,
          "time": 95.99999999999999,
          "velocity": 1
        },
        {
          "duration": 0.6000000000000085,
          "durationTicks": 256,
          "midi": 57,
          "name": "A3",
          "ticks": 40960,
          "time": 95.99999999999999,
          "velocity": 1
        },
        {
          "duration": 0.6000000000000085,
          "durationTicks": 256,
          "midi": 63,
          "name": "D#4",
          "ticks": 40960,
          "time": 95.99999999999999,
          "velocity": 1
        },
        {
          "duration": 0.6000000000000085,
          "durationTicks": 256,
          "midi": 65,
          "name": "F4",
          "ticks": 40960,
          "time": 95.99999999999999,
          "velocity": 1
        },
        {
          "duration": 0.6000000000000085,
          "durationTicks": 256,
          "midi": 29,
          "name": "F1",
          "ticks": 40960,
          "time": 95.99999999999999,
          "velocity": 1
        },
        {
          "duration": 0.6000000000000085,
          "durationTicks": 256,
          "midi": 41,
          "name": "F2",
          "ticks": 40960,
          "time": 95.99999999999999,
          "velocity": 1
        },
        {
          "duration": 0.29999999999999716,
          "durationTicks": 128,
          "midi": 55,
          "name": "G3",
          "ticks": 41216,
          "time": 96.6,
          "velocity": 1
        },
        {
          "duration": 0.29999999999999716,
          "durationTicks": 128,
          "midi": 58,
          "name": "A#3",
          "ticks": 41216,
          "time": 96.6,
          "velocity": 1
        },
        {
          "duration": 0.29999999999999716,
          "durationTicks": 128,
          "midi": 65,
          "name": "F4",
          "ticks": 41216,
          "time": 96.6,
          "velocity": 1
        },
        {
          "duration": 0.29999999999999716,
          "durationTicks": 128,
          "midi": 67,
          "name": "G4",
          "ticks": 41216,
          "time": 96.6,
          "velocity": 1
        },
        {
          "duration": 0.5999999999999943,
          "durationTicks": 256,
          "midi": 29,
          "name": "F1",
          "ticks": 41216,
          "time": 96.6,
          "velocity": 1
        },
        {
          "duration": 0.5999999999999943,
          "durationTicks": 256,
          "midi": 41,
          "name": "F2",
          "ticks": 41216,
          "time": 96.6,
          "velocity": 1
        },
        {
          "duration": 0.29999999999999716,
          "durationTicks": 128,
          "midi": 57,
          "name": "A3",
          "ticks": 41344,
          "time": 96.89999999999999,
          "velocity": 1
        },
        {
          "duration": 0.29999999999999716,
          "durationTicks": 128,
          "midi": 63,
          "name": "D#4",
          "ticks": 41344,
          "time": 96.89999999999999,
          "velocity": 1
        },
        {
          "duration": 0.29999999999999716,
          "durationTicks": 128,
          "midi": 65,
          "name": "F4",
          "ticks": 41344,
          "time": 96.89999999999999,
          "velocity": 1
        },
        {
          "duration": 0.29999999999999716,
          "durationTicks": 128,
          "midi": 69,
          "name": "A4",
          "ticks": 41344,
          "time": 96.89999999999999,
          "velocity": 1
        },
        {
          "duration": 1.2000000000000028,
          "durationTicks": 512,
          "midi": 58,
          "name": "A#3",
          "ticks": 41472,
          "time": 97.19999999999999,
          "velocity": 1
        },
        {
          "duration": 1.2000000000000028,
          "durationTicks": 512,
          "midi": 62,
          "name": "D4",
          "ticks": 41472,
          "time": 97.19999999999999,
          "velocity": 1
        },
        {
          "duration": 1.2000000000000028,
          "durationTicks": 512,
          "midi": 65,
          "name": "F4",
          "ticks": 41472,
          "time": 97.19999999999999,
          "velocity": 1
        },
        {
          "duration": 1.2000000000000028,
          "durationTicks": 512,
          "midi": 70,
          "name": "A#4",
          "ticks": 41472,
          "time": 97.19999999999999,
          "velocity": 1
        },
        {
          "duration": 1.2000000000000028,
          "durationTicks": 512,
          "midi": 34,
          "name": "A#1",
          "ticks": 41472,
          "time": 97.19999999999999,
          "velocity": 1
        },
        {
          "duration": 1.2000000000000028,
          "durationTicks": 512,
          "midi": 46,
          "name": "A#2",
          "ticks": 41472,
          "time": 97.19999999999999,
          "velocity": 1
        }
      ]
    }
  ]
}]]
